<svg width="33" height="32" viewBox="0 0 33 32" fill="none" xmlns="http://www.w3.org/2000/svg">
<g clip-path="url(#clip0_3325_12636)">
<path d="M0.5 16C0.5 7.16344 7.66344 0 16.5 0C25.3366 0 32.5 7.16344 32.5 16C32.5 24.8366 25.3366 32 16.5 32C7.66344 32 0.5 24.8366 0.5 16Z" fill="white"/>
<path d="M0.5 16C0.5 7.16344 7.66344 0 16.5 0C25.3366 0 32.5 7.16344 32.5 16C32.5 24.8366 25.3366 32 16.5 32C7.66344 32 0.5 24.8366 0.5 16Z" fill="#2563EB"/>
<path fill-rule="evenodd" clip-rule="evenodd" d="M23.2953 9.8542L13.7487 19.0675L11.2153 16.3609C10.7487 15.9209 10.0153 15.8942 9.482 16.2675C8.962 16.6542 8.81534 17.3342 9.13534 17.8809L12.1353 22.7609C12.4287 23.2142 12.9353 23.4942 13.5087 23.4942C14.0553 23.4942 14.5753 23.2142 14.8687 22.7609C15.3487 22.1342 24.5087 11.2142 24.5087 11.2142C25.7087 9.98753 24.2553 8.90753 23.2953 9.84086V9.8542Z" fill="white"/>
</g>
<path d="M16.5 0.5C25.0604 0.5 32 7.43959 32 16C32 24.5604 25.0604 31.5 16.5 31.5C7.93959 31.5 1 24.5604 1 16C1 7.43959 7.93959 0.5 16.5 0.5Z" stroke="#BFDBFE"/>
<defs>
<clipPath id="clip0_3325_12636">
<path d="M0.5 16C0.5 7.16344 7.66344 0 16.5 0C25.3366 0 32.5 7.16344 32.5 16C32.5 24.8366 25.3366 32 16.5 32C7.66344 32 0.5 24.8366 0.5 16Z" fill="white"/>
</clipPath>
</defs>
</svg>
