<svg width="291" height="167" viewBox="0 0 291 167" fill="none" xmlns="http://www.w3.org/2000/svg">
<path d="M245.117 104.123L244.582 104.182L251.189 164.549L251.724 164.49L245.117 104.123Z" fill="#292A2E"/>
<path d="M262.217 130.492L258.967 162.641L259.502 162.695L262.753 130.547L262.217 130.492Z" fill="#292A2E"/>
<path d="M267.801 158.74H243.688V166.566H267.801V158.74Z" fill="#292A2E"/>
<path opacity="0.2" d="M267.801 158.74H243.688V166.566H267.801V158.74Z" fill="white"/>
<path d="M282.332 144.321C286.9 138.249 284.722 128.903 277.467 123.445C270.213 117.987 260.629 118.485 256.062 124.556C251.494 130.627 253.672 139.973 260.926 145.431C268.181 150.889 277.765 150.392 282.332 144.321Z" fill="#0F172A"/>
<path opacity="0.2" d="M282.332 144.321C286.9 138.249 284.722 128.903 277.467 123.445C270.213 117.987 260.629 118.485 256.062 124.556C251.494 130.627 253.672 139.973 260.926 145.431C268.181 150.889 277.765 150.392 282.332 144.321Z" fill="white"/>
<path opacity="0.5" d="M282.336 144.333C282.025 144.747 281.691 145.135 281.334 145.494C276.306 148.706 268.884 148.201 262.996 143.769C255.743 138.312 253.566 128.966 258.134 122.895C258.445 122.481 258.779 122.096 259.133 121.734C264.164 118.52 271.583 119.028 277.474 123.456C284.727 128.916 286.904 138.262 282.336 144.333Z" fill="white"/>
<path d="M248.681 121.31C255.867 115.763 257.821 106.25 253.044 100.062C248.267 93.8732 238.57 93.3531 231.383 98.8999C224.197 104.447 222.243 113.96 227.02 120.149C231.796 126.337 241.494 126.857 248.681 121.31Z" fill="#0F172A"/>
<path opacity="0.2" d="M246.409 119.707C240.844 124.006 233.771 124.661 228.644 121.862C228.058 121.347 227.516 120.771 227.025 120.136C222.247 113.949 224.2 104.434 231.386 98.8883C236.952 94.592 244.025 93.9347 249.149 96.7306C249.737 97.2458 250.278 97.8239 250.77 98.4597C255.548 104.646 253.594 114.161 246.409 119.707H246.409Z" fill="white"/>
<g opacity="0.05">
<path d="M76.6754 42.7746C88.1351 42.7746 97.425 33.4847 97.425 22.025C97.425 10.5653 88.1351 1.27539 76.6754 1.27539C65.2157 1.27539 55.9258 10.5653 55.9258 22.025C55.9258 33.4847 65.2157 42.7746 76.6754 42.7746Z" fill="#292A2E"/>
</g>
<path d="M69.8829 29.4354L71.8186 26.4342C73.3529 27.6097 74.6948 28.2093 76.1217 28.2093C77.8324 28.2093 78.5847 27.4997 78.5847 26.126C78.5847 23.0209 70.6178 23.0769 70.6178 17.6305C70.6178 14.1296 73.0429 11.8995 76.8673 11.8995C79.449 11.8995 81.2032 12.9648 82.6128 14.46L80.3929 17.003C79.296 16.0053 78.3658 15.4797 77.1056 15.4797C75.6537 15.4797 74.8658 16.0652 74.8658 17.4211C74.8658 20.2991 82.8328 20.0478 82.8328 25.8171C82.8328 29.2828 80.5392 31.7897 76.1215 31.7897C74.2151 31.7897 71.5872 30.9803 69.8828 29.4358V29.4354H69.8829ZM75.1911 8.94141H78.1353V13.288H75.1911V8.94141ZM75.1911 29.9776H78.1353V34.7469H75.1911V29.9776Z" fill="white"/>
<path d="M55.5273 0.634766H237.068C241.526 0.634766 245.14 4.24877 245.14 8.70701V141.622C245.14 146.081 241.526 149.695 237.068 149.695H55.5273C51.0692 149.695 47.4551 146.081 47.4551 141.622V8.7069C47.4551 4.24877 51.0692 0.634766 55.5273 0.634766Z" fill="#C8D9FF"/>
<path d="M237.069 149.963H55.5288C50.9295 149.963 47.1875 146.221 47.1875 141.622V8.70651C47.1875 4.10722 50.9295 0.365234 55.5288 0.365234H237.069C241.669 0.365234 245.411 4.10722 245.411 8.70651V141.622C245.411 146.221 241.669 149.963 237.069 149.963V149.963ZM55.5288 0.903399C51.2261 0.903399 47.7257 4.40379 47.7257 8.70651V141.622C47.7257 145.925 51.2261 149.425 55.5288 149.425H237.069C241.372 149.425 244.872 145.925 244.872 141.622V8.70651C244.872 4.40379 241.372 0.903399 237.069 0.903399H55.5288Z" fill="#292A2E"/>
<path d="M82.7422 73.487C82.5356 73.487 82.3292 73.4082 82.1715 73.2505L78.4045 69.4834C78.0891 69.1684 78.0891 68.6571 78.4045 68.342C78.7198 68.0266 79.2306 68.0266 79.5459 68.342L83.313 72.109C83.6283 72.4241 83.6283 72.9353 83.313 73.2505C83.1553 73.4082 82.9486 73.487 82.7422 73.487Z" fill="#0F172A"/>
<path d="M78.9752 73.487C78.7686 73.487 78.5622 73.4082 78.4045 73.2505C78.0891 72.9354 78.0891 72.4242 78.4045 72.109L82.1715 68.342C82.4869 68.0266 82.9976 68.0266 83.313 68.342C83.6283 68.657 83.6283 69.1683 83.313 69.4834L79.5459 73.2505C79.3881 73.4082 79.1814 73.487 78.9752 73.487Z" fill="#0F172A"/>
<path d="M190.597 109.483L189.521 111.949L196.139 114.834L197.214 112.367L190.597 109.483Z" fill="#0F172A"/>
<path d="M192.693 43.3702L186.469 47.0273L187.832 49.3473L194.056 45.6902L192.693 43.3702Z" fill="#0F172A"/>
<path d="M88.9742 49.6272L88.1406 52.1855L95.0047 54.4221L95.8383 51.8637L88.9742 49.6272Z" fill="#0F172A"/>
<path d="M97.07 92.5189L91.1562 96.6582L92.6991 98.8624L98.6129 94.7231L97.07 92.5189Z" fill="#0F172A"/>
<path d="M205.454 83.0511L205.207 85.7305L212.239 86.3787L212.486 83.6993L205.454 83.0511Z" fill="#0F172A"/>
<path d="M212.611 63.7819C212.405 63.7819 212.198 63.7031 212.041 63.5454L208.274 59.7784C207.958 59.4633 207.958 58.9521 208.274 58.6369C208.589 58.3216 209.1 58.3216 209.415 58.6369L213.182 62.404C213.497 62.719 213.497 63.2303 213.182 63.5454C213.024 63.7031 212.818 63.7819 212.611 63.7819Z" fill="#0F172A"/>
<path d="M208.844 63.7819C208.638 63.7819 208.431 63.7031 208.274 63.5454C207.958 63.2304 207.958 62.7191 208.274 62.404L212.041 58.6369C212.356 58.3216 212.867 58.3216 213.182 58.6369C213.497 58.9519 213.497 59.4632 213.182 59.7784L209.415 63.5454C209.257 63.7031 209.051 63.7819 208.844 63.7819Z" fill="#0F172A"/>
<path opacity="0.4" d="M146.298 121.993C170.005 121.993 189.223 102.774 189.223 79.0676C189.223 55.3608 170.005 36.1426 146.298 36.1426C122.591 36.1426 103.373 55.3608 103.373 79.0676C103.373 102.774 122.591 121.993 146.298 121.993Z" fill="#2563EB"/>
<path d="M146.299 109.088C162.878 109.088 176.319 95.6479 176.319 79.0685C176.319 62.4891 162.878 49.0488 146.299 49.0488C129.72 49.0488 116.279 62.4891 116.279 79.0685C116.279 95.6479 129.72 109.088 146.299 109.088Z" fill="#2563EB"/>
<path d="M140.16 91.9466C139.7 91.9466 139.241 91.7663 138.899 91.4093L129.343 81.4651C128.674 80.7687 128.696 79.6615 129.393 78.9923C130.089 78.3231 131.196 78.3449 131.865 79.0418L140.25 87.7673L162.169 68.1034C162.888 67.4584 163.994 67.5182 164.639 68.2374C165.284 68.9564 165.224 70.0623 164.505 70.7073L141.327 91.4997C140.994 91.7989 140.576 91.9469 140.16 91.9469L140.16 91.9466Z" fill="white"/>
<path d="M245.141 8.70505V16.8278H47.457V8.70505C47.457 4.24681 51.0709 0.632812 55.5293 0.632812H237.069C241.527 0.632812 245.141 4.24671 245.141 8.70505H245.141Z" fill="#292A2E"/>
<path d="M10.5069 150.667C7.4209 150.667 4.47909 149.25 2.55529 146.786C0.405437 144.033 -0.167503 140.364 1.04123 137.086C1.61223 135.538 16.2505 97.7494 18.7987 91.1816L36.4149 101.432C34.9821 105.125 29.7908 119.122 25.6202 130.398L32.5488 129.645L34.7297 148.093L11.5986 150.608C11.2337 150.647 10.8691 150.667 10.5067 150.667H10.5069Z" fill="#1E3A8A"/>
<path d="M22.5983 151.252L19.5215 166.567H79.2824L75.8401 150.961L22.5983 151.252Z" fill="#262626"/>
<path d="M68.1269 83.3252C68.065 83.3171 66.3699 89.6969 53.1395 88.704C43.9803 88.0178 41.747 81.7834 41.5371 81.7834C42.5247 81.5736 44.1282 81.3556 44.5668 81.1215C46.0091 80.3466 47.0598 79.4032 47.5886 77.3786C48.0021 75.7955 48.2128 69.7004 48.2128 66.6426L62.3069 69.8096C62.1105 73.2591 60.7355 81.2559 65.5546 82.6713C66.3564 82.9054 67.2202 83.1208 68.1269 83.3252Z" fill="#E2E8F0"/>
<path d="M61.8195 76.5921C56.2631 77.0305 49.1257 74.6846 47.7701 67.2717L46.5469 60.5828C45.191 53.1698 47.9857 46.4484 54.9654 45.1719C61.9452 43.8954 68.2611 48.9508 69.6167 56.3637L70.1583 59.3248C70.6784 62.1692 71.7329 75.8099 61.8197 76.5921H61.8195Z" fill="#E2E8F0"/>
<path d="M35.5194 82.8099C30.5265 83.1805 25.4354 83.721 21.7614 87.1224C17.3368 91.2187 16.5352 96.2555 19.3578 110.117C21.7865 122.043 20.8231 127.255 22.4478 149.263C22.4957 149.911 22.5982 151.252 22.5982 151.252L76.0098 151.164C76.0098 151.164 81.014 121.965 83.7777 108.497C85.8789 98.2588 91.3979 85.8295 68.1273 83.3247C68.0654 83.318 49.4018 81.7802 35.5191 82.8102L35.5194 82.8099Z" fill="#1E3A8A"/>
<path d="M22.5996 151.386C22.5274 151.386 22.468 151.329 22.465 151.257L20.7911 107.808C20.7884 107.734 20.8463 107.671 20.9203 107.668C21.0024 107.663 21.0572 107.723 21.0602 107.797L22.7341 151.246C22.7368 151.32 22.6789 151.383 22.605 151.386C22.6031 151.386 22.6012 151.386 22.5996 151.386V151.386Z" fill="#0C0C0C"/>
<path d="M108.302 98.3235L112.055 89.9061C112.4 89.1312 113.338 88.8059 114.097 89.2264C114.77 89.5991 115.001 90.4604 114.687 91.1627L113.883 92.9676L119.018 88.453C119.581 87.9412 120.598 87.6727 121.131 88.3412C121.597 88.8532 121.629 89.6064 121.251 90.1523C121.256 90.1572 121.263 90.1601 121.267 90.1664C121.271 90.1707 121.273 90.1763 121.276 90.1809L122.143 89.3915C122.812 88.7828 123.892 88.9119 124.384 89.7321C124.744 90.3327 124.584 91.1127 124.066 91.5844L123.697 91.9205C123.702 91.9358 123.704 91.9514 123.704 91.9674C124.309 91.6278 125.098 91.7567 125.557 92.332C126.043 92.9417 125.922 93.8393 125.345 94.3645L124.429 95.1987C124.471 95.1942 124.514 95.207 124.545 95.2409C124.563 95.2611 124.571 95.2851 124.574 95.3099C125.175 95.1641 125.847 95.4051 126.196 96.0186C126.536 96.6159 126.368 97.3769 125.861 97.8396L118.128 104.879C115.916 106.893 112.702 107.364 110.004 106.068C107.64 104.932 106.609 102.122 107.677 99.7269L108.302 98.3242L108.302 98.3235Z" fill="#E2E8F0"/>
<g opacity="0.2">
<path d="M116.19 94.6465C116.24 94.7001 116.323 94.7046 116.378 94.6562L121.257 90.3567C121.312 90.3074 121.318 90.2226 121.268 90.1667C121.226 90.1108 121.134 90.1057 121.078 90.1548L116.2 94.4543C116.144 94.5035 116.139 94.5883 116.188 94.6443L116.19 94.6465Z" fill="#0C0C0C"/>
</g>
<g opacity="0.2">
<path d="M118.026 96.8506C118.076 96.9042 118.159 96.9087 118.214 96.8603L123.658 92.0619C123.714 92.0126 123.719 91.9279 123.67 91.8719C123.625 91.8214 123.536 91.8109 123.48 91.86L118.036 96.6585C117.98 96.7077 117.975 96.7925 118.024 96.8484L118.026 96.8508V96.8506Z" fill="#0C0C0C"/>
</g>
<g opacity="0.2">
<path d="M120.003 99.2483C120.052 99.3018 120.136 99.3064 120.19 99.258L124.533 95.4307C124.589 95.3814 124.594 95.2966 124.545 95.2407C124.494 95.1855 124.411 95.1796 124.355 95.2288L120.012 99.0561C119.957 99.1054 119.951 99.1902 120 99.2461L120.003 99.2485V99.2483Z" fill="#0C0C0C"/>
</g>
<path d="M66.9707 69.7853C65.9732 64.7741 65.516 61.4308 65.5691 57.9036C66.9739 55.4394 66.6045 52.6115 66.2851 51.3893C67.662 52.1404 68.2378 52.2224 69.5337 52.2224C69.5337 52.2224 67.2105 42.8988 59.3143 40.39C57.8623 39.8249 54.1551 39.111 49.2327 39.7861C45.0458 40.3604 34.7254 43.4907 33.2511 55.1098H33.2505C33.2505 55.1098 33.2505 55.1131 33.2502 55.1165C33.2015 55.5019 32.2105 66.2071 30.2349 71.3435C27.5792 78.2482 23.8506 80.3935 23.9451 88.3602C24.0667 98.6076 42.9056 99.9715 54.2686 99.2049C65.6316 98.4383 71.9745 94.7022 72.0567 87.3172C72.1488 79.0429 68.9668 79.8115 66.9712 69.7855L66.9707 69.7853Z" fill="#0A0A0A"/>
<path d="M66.974 65.5855C64.8528 65.9735 62.7183 64.0186 62.3306 61.8976C61.9426 59.7765 63.4483 58.2922 65.5694 57.9043L66.9743 65.5856H66.974V65.5855Z" fill="#E2E8F0"/>
<path d="M89.7882 149.14C89.3725 149.14 88.954 149.114 88.5349 149.061C84.6462 148.575 81.3907 145.882 80.1853 142.153L66.166 98.7965L85.3677 92.5879L92.7414 115.393L105.483 95.1304L122.567 105.873L98.3279 144.42C96.4666 147.38 93.2264 149.14 89.7882 149.14Z" fill="#1E3A8A"/>
<path d="M78.4767 137.17C78.4686 137.17 78.4603 137.169 78.4519 137.168C78.379 137.154 78.3306 137.084 78.3441 137.011L83.1097 111.142C83.1234 111.068 83.1925 111.019 83.2665 111.034C83.3394 111.047 83.3879 111.117 83.3744 111.191L78.6089 137.06C78.5967 137.125 78.5401 137.17 78.4767 137.17Z" fill="#0C0C0C"/>
<path d="M94.4562 121.499C94.3963 121.499 94.3416 121.459 94.326 121.399L92.7387 115.284C92.7201 115.212 92.7634 115.138 92.835 115.12C92.9079 115.101 92.9806 115.144 92.9992 115.216L94.5865 121.331C94.605 121.403 94.5617 121.476 94.4901 121.495C94.4788 121.498 94.4672 121.499 94.4562 121.499V121.499Z" fill="#0C0C0C"/>
<path d="M6.54257 166.835H275.519C275.668 166.835 275.788 166.714 275.788 166.566C275.788 166.417 275.668 166.297 275.519 166.297H6.54257C6.39407 166.297 6.27344 166.417 6.27344 166.566C6.27344 166.714 6.39407 166.835 6.54257 166.835Z" fill="#292A2E"/>
</svg>
