<svg width="240" height="240" viewBox="0 0 240 240" fill="none" xmlns="http://www.w3.org/2000/svg">
<path d="M231.63 130.922C229.021 185.022 193.468 207.574 150.88 214.49C132.227 217.52 112.224 217.55 93.0491 215.917C30.0947 210.558 9.08846 169.103 13.767 114.15C18.4456 59.1959 81.0467 19.6535 144.001 25.0137C206.956 30.3734 234.287 75.8337 231.63 130.922Z" fill="#DBEAFE"/>
<path d="M197.188 85.1369C199.059 100.781 199.085 116.621 197.221 132.267C195.389 147.648 191.776 162.788 186.735 177.428C183.837 185.848 180.458 194.098 176.706 202.173C176.365 202.906 177.484 203.48 177.826 202.745C184.499 188.383 189.97 173.442 193.772 158.06C197.513 142.923 199.609 127.382 199.846 111.787C199.982 102.857 199.503 93.9224 198.443 85.0549C198.348 84.2552 197.092 84.3305 197.188 85.1369Z" fill="white"/>
<path d="M199.739 105.119C206.518 96.0229 206.541 82.4734 199.793 73.3549C198.507 71.6173 196.812 69.9339 194.662 69.7112C192.672 69.5053 190.713 70.664 189.546 72.2888C188.379 73.9136 187.898 75.9368 187.708 77.9283C187.222 83.0514 188.521 88.2349 190.768 92.8645C193.015 97.4941 196.18 101.619 199.569 105.492" fill="white"/>
<path d="M197.054 140.483C200.888 129.806 196.961 116.839 187.849 110.082C186.113 108.794 184 107.678 181.879 108.092C179.915 108.475 178.379 110.154 177.736 112.048C177.093 113.943 177.222 116.018 177.621 117.979C178.649 123.021 181.402 127.601 184.901 131.375C188.4 135.149 192.63 138.172 197 140.889" fill="white"/>
<path d="M199.446 122.271C209.469 121.82 218.76 114.25 221.227 104.524C221.696 102.671 221.9 100.567 220.849 98.97C219.876 97.4921 217.986 96.7994 216.22 96.9098C214.453 97.0202 212.799 97.8233 211.329 98.8087C207.548 101.344 204.726 105.135 202.814 109.266C200.902 113.397 199.85 117.874 199.095 122.362" fill="white"/>
<path d="M192.492 158.996C203.527 160.112 214.903 153.323 219.162 143.082C219.973 141.131 220.533 138.863 219.64 136.948C218.813 135.176 216.857 134.115 214.907 133.952C212.958 133.789 211.019 134.402 209.254 135.244C204.712 137.409 201.017 141.103 198.263 145.314C195.509 149.525 193.64 154.252 192.094 159.041" fill="white"/>
<path d="M180.582 193.723C182.226 182.754 175.991 171.065 165.966 166.321C164.056 165.417 161.818 164.749 159.862 165.549C158.051 166.29 156.899 168.193 156.642 170.132C156.386 172.071 156.905 174.038 157.661 175.841C159.607 180.482 163.119 184.349 167.193 187.302C171.266 190.255 175.899 192.349 180.607 194.123" fill="white"/>
<path d="M200.012 103.318C201.69 94.6736 199.741 83.912 195.762 76.1076C195.667 75.9219 195.371 76.0745 195.438 76.2656C197.035 80.791 198.56 85.1561 199.285 89.9307C199.963 94.3985 199.86 98.8174 199.952 103.315C199.952 103.349 200.005 103.352 200.012 103.318Z" fill="#DBEAFE"/>
<path d="M196.334 139.333C196.334 135.348 194.791 131.108 193.215 127.505C191.684 124.004 189.751 120.525 187.22 117.646C187.022 117.421 186.662 117.744 186.827 117.985C189.145 121.366 191.352 124.65 192.956 128.451C194.456 132.008 195.096 135.698 196.229 139.354C196.248 139.415 196.334 139.393 196.334 139.333Z" fill="#DBEAFE"/>
<path d="M214.382 105.354C209.198 109.616 204.301 114.71 200.843 120.501C200.671 120.788 201.119 121.098 201.329 120.835C205.561 115.528 209.701 110.322 214.522 105.516C214.608 105.431 214.478 105.275 214.382 105.354Z" fill="#DBEAFE"/>
<path d="M211.116 143.7C204.991 147.412 198.195 151.716 193.673 157.388C193.541 157.553 193.745 157.836 193.929 157.685C196.786 155.348 199.31 152.623 202.179 150.283C205.045 147.945 208.022 145.727 211.15 143.751C211.183 143.73 211.15 143.68 211.116 143.7Z" fill="#DBEAFE"/>
<path d="M184.481 186.281C195.018 189.745 207.588 185.562 213.95 176.477C215.162 174.746 216.196 172.652 215.736 170.59C215.31 168.68 213.628 167.224 211.759 166.646C209.89 166.068 207.865 166.249 205.959 166.691C201.058 167.829 196.655 170.642 193.06 174.161C189.465 177.681 186.622 181.896 184.083 186.239" fill="white"/>
<path d="M205.96 175.35C199.186 177.655 191.616 180.402 185.986 184.961C185.786 185.122 185.976 185.407 186.204 185.291C189.365 183.69 192.3 181.65 195.464 180.033C198.872 178.291 202.38 176.708 205.98 175.408C206.017 175.394 205.998 175.337 205.96 175.35Z" fill="#DBEAFE"/>
<path d="M180.052 193.572C177.482 187.178 172.841 180.461 167.32 176.252C167.043 176.039 166.716 176.401 166.958 176.655C169.539 179.357 172.182 181.849 174.434 184.862C176.514 187.646 178.204 190.621 179.876 193.658C179.93 193.756 180.094 193.676 180.052 193.572Z" fill="#DBEAFE"/>
<path d="M190.858 164.649C192.502 153.68 186.267 141.991 176.242 137.247C174.332 136.343 172.093 135.674 170.138 136.475C168.328 137.216 167.174 139.119 166.919 141.058C166.663 142.997 167.181 144.963 167.938 146.767C169.883 151.407 173.395 155.275 177.469 158.228C181.543 161.181 186.175 163.275 190.884 165.048" fill="white"/>
<path d="M190.328 164.494C187.758 158.1 183.117 151.383 177.596 147.173C177.318 146.961 176.992 147.324 177.234 147.577C179.814 150.278 182.458 152.771 184.71 155.784C186.79 158.568 188.479 161.543 190.151 164.58C190.205 164.678 190.37 164.598 190.328 164.494Z" fill="#DBEAFE"/>
<path d="M183.981 55.2385L185.976 49.1641L188.241 55.2385C188.241 55.2385 192.766 56.0084 192.819 56.4303C192.87 56.8431 188.488 58.1348 188.488 58.1348C188.488 58.1348 186.648 64.0244 185.975 62.6905C185.303 61.3565 184.65 58.4041 184.65 58.4041C184.65 58.4041 178.951 57.2204 178.951 56.6391C178.951 56.0098 183.981 55.2385 183.981 55.2385Z" fill="white"/>
<path d="M153.876 201.24L150.88 214.491C150.88 214.491 181.513 210.96 195.428 198.658C195.428 198.658 155.483 194.132 153.876 201.24Z" fill="white"/>
<path d="M59.8859 74.8045C59.4169 75.3637 50.0166 86.8002 50.0166 86.8002C50.0166 86.8002 39.1763 76.7576 40.0326 82.2762C40.8889 87.7943 41.5859 95.901 41.5859 95.901C41.5859 95.901 29.3992 96.0508 31.7714 98.2482C34.143 100.446 42.0842 105.564 42.0842 105.564C42.0842 105.564 32.715 120.509 37.5347 118.26C42.3544 116.01 48.6419 111.639 48.6419 111.639C48.6419 111.639 67.3192 127.449 64.9456 122.764C62.572 118.078 58.8496 106.526 58.8496 106.526C58.8496 106.526 80.0829 99.9815 77.0344 97.9031C73.9859 95.8247 60.3669 93.9018 60.3669 93.9018C60.3669 93.9018 60.927 73.5642 59.8859 74.8045Z" fill="white"/>
<path d="M47.492 174.124C47.492 174.124 44.3047 159.491 47.9407 162.005C51.5767 164.52 56.7833 171.17 56.7833 171.17L64.8444 168.854C66.5859 168.354 68.0268 170.265 67.0673 171.802L63.1601 178.058C63.1601 178.058 73.315 192.104 69.5143 190.785C65.7137 189.466 56.5476 186.284 56.5476 186.284C56.5476 186.284 55.6928 201.017 53.1243 196.869C50.5558 192.722 48.2167 182.14 48.2167 182.14C48.2167 182.14 31.3352 179.537 36.5916 178.105C41.8476 176.674 47.492 174.124 47.492 174.124Z" fill="white"/>
<path d="M93.4884 45.0066C93.4884 45.0066 94.8333 36.4117 96.2748 38.5372C97.7162 40.6621 99.1404 45.3575 99.1404 45.3575L103.993 45.7948C105.041 45.8893 105.42 47.2266 104.578 47.8578L101.148 50.4268C101.148 50.4268 103.7 60.1655 101.919 58.6535C100.137 57.1415 95.8404 53.4945 95.8404 53.4945C95.8404 53.4945 92.285 61.2949 91.7642 58.509C91.2439 55.7236 92.1976 49.5013 92.1976 49.5013C92.1976 49.5013 83.6004 44.5482 86.7477 44.8761C89.896 45.2029 93.4884 45.0066 93.4884 45.0066Z" fill="white"/>
<path d="M142.813 98.6369C142.813 98.6369 132.582 105.46 133.415 101.926C134.247 98.3931 137.771 92.42 137.771 92.42L133.584 86.9523C132.68 85.771 133.708 84.0968 135.171 84.3699L141.125 85.4816C141.125 85.4816 148.818 73.5094 148.949 76.8099C149.079 80.1104 149.395 88.0707 149.395 88.0707C149.395 88.0707 160.913 84.3085 158.512 87.5149C156.111 90.7213 148.724 95.6811 148.724 95.6811C148.724 95.6811 151.794 109.366 149.124 105.777C146.453 102.187 142.813 98.6369 142.813 98.6369Z" fill="white"/>
<path d="M160.861 79.4517C160.987 77.728 161.11 76.0044 161.227 74.2802C161.294 73.2813 161.881 70.9432 161.382 70.0087C161.175 69.6213 160.458 69.7754 160.513 70.2439C160.703 71.8893 162.218 73.8194 162.974 75.2517C163.949 77.1002 164.934 78.9434 165.926 80.7828C166.045 81.004 166.352 81.0746 166.564 80.9503C171.658 77.9527 176.752 74.9546 181.846 71.957C181.617 71.7813 181.389 71.6056 181.16 71.43C179.219 76.6663 176.926 81.8868 175.332 87.2383C175.274 87.4317 175.369 87.6674 175.546 87.7653C176.934 88.5324 178.982 88.6927 180.504 89.0676C182.284 89.5063 184.066 89.9397 185.849 90.3693C185.812 90.0852 185.774 89.801 185.738 89.5164C182.726 91.0341 179.714 92.5519 176.703 94.0692C176.167 94.3394 176.639 95.1448 177.174 94.8751C180.185 93.3573 183.197 91.8396 186.208 90.3223C186.566 90.1418 186.476 89.561 186.097 89.4693C183.753 88.9044 181.411 88.3351 179.072 87.7514C178.179 87.5287 176.827 87.4332 176.026 86.9599C176.736 87.3789 175.949 87.6079 176.402 87.0012C176.627 86.7012 176.734 86.0935 176.863 85.7407C178.583 81.0487 180.323 76.3639 182.06 71.6776C182.205 71.2845 181.705 70.9562 181.374 71.1506C176.821 73.8304 172.266 76.5108 167.713 79.1906C167.338 79.4109 165.814 80.044 166.413 80.2101C166.997 80.3719 166.418 79.8016 166.282 79.4767C166.043 78.9079 165.682 78.3583 165.391 77.814C164.616 76.3648 163.844 74.9138 163.083 73.4575C162.633 72.5959 161.558 71.2245 161.445 70.2434C161.155 70.3221 160.865 70.4004 160.575 70.4791C160.801 70.9005 160.306 74.0916 160.242 75.0256C160.141 76.5012 160.035 77.9762 159.927 79.4512C159.884 80.0508 160.817 80.0479 160.861 79.4517Z" fill="#421B36"/>
<path d="M119.904 59.2468C121.34 64.0295 125.38 66.0283 136.422 65.4379C137.477 69.8587 132.767 72.0014 133.455 73.3161C133.931 74.2228 135.216 74.1619 136.143 73.8739C140.051 72.6609 142.231 70.2647 143.819 66.0772C147.783 66.1977 150.632 67.1049 154.324 66.6911C158.016 66.2774 160.467 66.0355 162.979 62.9707C164.95 60.5654 165.122 53.7455 164.827 49.9478C164.405 44.4887 164.679 40.1524 161.34 36.1651C158.855 33.1972 155.215 31.7707 151.647 30.7636C145.802 29.1139 139.744 28.3127 133.678 28.3876C129.802 28.4351 125.692 28.9315 122.544 31.5043C119.397 34.078 117.207 54.4291 119.904 59.2468Z" fill="#2563EB"/>
<path d="M141.846 38.941C141.638 38.737 141.323 38.6986 141.074 38.8498C139.434 39.8425 132.625 43.9599 132.488 43.9445C132.333 43.9273 127.009 42.9351 126.68 43.7813C126.352 44.6276 125.54 50.7077 126.681 51.0101C127.821 51.3125 132.48 50.4361 132.48 50.4361C132.48 50.4361 139.337 58.1041 140.98 57.05C142.55 56.0415 144.677 41.7087 141.846 38.941Z" fill="white"/>
<path d="M147.613 40.6408C150.091 45.6011 150.253 51.5867 148.03 56.6694C147.832 57.1235 148.502 57.52 148.702 57.0621C151.044 51.7053 150.899 45.4816 148.284 40.2482C148.061 39.8003 147.39 40.1939 147.613 40.6408Z" fill="white"/>
<path d="M152.575 42.7327C154.098 46.8717 153.62 51.4481 151.899 55.4493C151.703 55.9039 152.373 56.3009 152.571 55.842C154.372 51.6535 154.923 46.8698 153.325 42.5258C153.153 42.0602 152.401 42.2613 152.575 42.7327Z" fill="white"/>
<path d="M131.965 44.1804C132.613 46.2209 132.662 48.3963 132.098 50.4617C131.966 50.9451 132.716 51.1515 132.848 50.6686C133.446 48.4755 133.403 46.1408 132.715 43.9736C132.564 43.4984 131.813 43.7014 131.965 44.1804Z" fill="#2563EB"/>
<path d="M140.506 39.1906C141.546 45.0418 140.991 51.1426 139.086 56.7614C138.924 57.2366 139.675 57.4402 139.835 56.9683C141.787 51.2131 142.32 44.9731 141.256 38.9842C141.169 38.4922 140.419 38.7005 140.506 39.1906Z" fill="#2563EB"/>
<path d="M129.283 117.05C127.723 114.879 125.656 113.027 124.265 110.762C122.078 107.202 121.761 102.996 121.355 98.9081C121.288 98.2304 121.277 97.5502 121.327 96.872L122.116 86.1454C122.172 85.387 122.155 84.6329 122.064 83.8765C121.596 79.9966 119.565 68.3134 111.841 64.7974C104.751 61.5704 94.3372 64.3563 89.7709 65.8693C88.2733 66.3656 90.9776 65.9854 89.3831 65.9873C79.2613 65.9993 71.4945 71.8035 69.4823 79.5675C68.3591 83.9005 66.6498 89.4541 67.2743 93.8893C67.8983 98.3245 68.0994 103.056 65.8722 107.013C64.7716 108.969 63.1386 110.617 61.7845 112.432C60.4305 114.246 59.3226 116.364 59.5069 118.567C59.8223 122.346 63.7761 125.227 64.1687 129C64.4634 131.833 62.6908 134.443 61.8474 137.174C61.7413 137.518 61.6521 137.865 61.5786 138.214C59.8703 146.375 67.6948 153.653 76.6717 152.834L119.541 148.924C125.225 148.405 130.019 144.727 131.436 139.631C132.087 137.293 132.593 134.928 132.836 132.523C133.375 127.18 132.506 121.539 129.283 117.05Z" fill="#421B36"/>
<path d="M78.7501 167.818C78.7501 167.818 45.3056 187.208 27.4976 188.464C26.3855 188.547 25.3338 188.551 24.3579 188.481C9.10307 187.358 6.05891 177.422 9.43571 171.583C9.49907 171.466 9.56819 171.355 9.63731 171.244C9.85427 170.9 10.0995 170.575 10.3616 170.265C14.2851 165.679 48.6819 146.806 64.9885 137.999C70.1442 135.213 73.4927 133.434 73.4927 133.434L78.7501 167.818Z" fill="#2563EB"/>
<path d="M83.6499 128.777L73.4922 133.435L67.3213 151.299L87.6771 196.977L87.0517 207.2C87.0517 207.2 148.563 195.342 147.342 193.396C146.12 191.45 138.988 176.311 139.04 175.674C139.093 175.037 141.512 161.087 138.33 155.117C135.148 149.146 125.094 143.322 125.094 143.322L117.637 123.465L83.6499 128.777Z" fill="#2563EB"/>
<path d="M70.0684 155.922L128.97 136.266C128.97 136.266 132.539 150.645 131.912 150.893C131.285 151.141 76.1864 170.907 76.1864 170.907L70.0684 155.922Z" fill="#3B82F6"/>
<path opacity="0.3" d="M101.452 154.144C101.585 154.178 101.688 154.251 101.785 154.331L101.368 155.142C100.945 155.153 100.947 154.805 100.85 154.465C100.981 154.229 101.182 154.157 101.451 154.269C101.452 154.227 101.452 154.185 101.452 154.144ZM101.452 145.185C101.452 145.227 101.452 145.268 101.452 145.31C100.869 145.306 100.543 146.317 101.452 146.305C101.452 146.264 101.452 146.222 101.452 146.181C101.798 146.305 102.074 146.067 102.177 145.751C101.93 145.533 101.771 145.261 101.452 145.185ZM107.903 137.347C108.082 137.152 108.177 136.929 108.256 136.73C108.213 136.54 108.176 136.383 108.134 136.198C107.069 135.574 106.232 137.501 107.903 137.347ZM111.525 135.365L111.912 134.611C111.568 134.735 111.458 135.059 111.525 135.365ZM105.284 133.831C105.17 133.491 104.995 133.288 104.811 133.197C104.581 133.544 104.347 133.899 104.108 134.261C104.608 134.694 105.025 134.396 105.284 133.831ZM103.303 135.857C103.676 135.838 103.776 135.323 103.637 134.977C103.458 135.249 103.278 135.524 103.095 135.803C103.166 135.795 103.234 135.802 103.303 135.857ZM113.103 128.245C113.409 128.152 113.636 128.453 113.939 128.396C114.132 128.094 114.204 127.769 114.117 127.401C113.685 127.102 113.313 127.252 112.92 127.406C112.937 127.679 112.82 128.12 113.103 128.245ZM108.667 140.901C108.627 140.966 108.601 141.031 108.582 141.096L108.786 140.699C108.744 140.753 108.704 140.818 108.667 140.901ZM111.591 125.883C111.533 126.085 111.252 126.189 111.315 126.458C111.633 126.718 111.911 127.037 112.392 127.018C112.516 126.839 112.644 126.656 112.784 126.453C112.475 125.997 112.178 125.633 111.591 125.883ZM110.481 137.261C110.509 137.262 110.528 137.255 110.555 137.255L111.009 136.37C110.884 136.262 110.715 136.174 110.498 136.133C109.815 136.214 109.617 137.354 110.481 137.261ZM109.919 127.878C110.134 128.336 110.134 128.336 110.552 128.523C111.153 128.254 111.191 128.15 110.969 127.357C110.383 127.073 110.26 127.132 109.919 127.878ZM114.669 126.873C115.422 126.991 115.422 126.99 115.596 126.3C115.663 125.022 113.651 126.043 114.669 126.873ZM106.912 133.966C107.072 134.448 108.096 134.401 108.28 133.937C108.069 133.154 108.095 133.338 107.481 133.252C107.072 133.195 106.785 133.574 106.912 133.966ZM109.525 138.426C109.45 138.19 109.619 138.045 109.661 137.831C109.252 137.238 108.425 137.471 108.502 138.213C108.642 138.761 109.467 139.197 109.525 138.426ZM109.906 133.918C110.389 134.515 111.515 134.378 111.223 133.535C110.842 132.977 109.909 133.235 109.906 133.918ZM109.66 128.958C109.142 128.538 108.593 128.569 108.454 129.303C108.683 130.423 109.652 129.845 109.66 128.958ZM103.24 137.549C102.521 137.608 102.299 138.108 102.642 138.7C103.556 139.234 104.015 138.11 103.24 137.549ZM112.647 129.263C112.69 128.425 111.786 128.678 111.41 129.185C111.387 130.112 112.506 130.116 112.647 129.263ZM117.637 123.465C117.637 123.465 117.57 123.475 117.467 123.491C117.488 123.55 117.509 123.612 117.53 123.672L117.637 123.465ZM110.699 130.077C110.362 130.149 110.126 130.361 109.933 130.67C109.998 131.203 110.849 131.86 110.951 131.004C111.189 130.602 111.16 130.36 110.699 130.077ZM110.314 125.275C110.331 125.289 110.345 125.302 110.365 125.316C110.952 125.697 111.51 125.115 111.116 124.484C111.107 124.486 111.095 124.488 111.086 124.489C110.974 124.506 110.706 124.786 110.314 125.275ZM109.658 135.317C109.618 134.595 108.825 134.461 108.449 135.131C108.444 136.188 109.363 135.947 109.658 135.317ZM106.437 131.789C105.517 131.5 105.132 132.712 106.111 132.894C106.724 132.962 106.876 132.176 106.437 131.789ZM114.878 128.71C114.418 128.823 114.35 129.217 114.516 129.543L114.949 128.7C114.925 128.702 114.901 128.704 114.878 128.71ZM109.642 126.153C109.516 126.324 109.384 126.505 109.244 126.699C109.415 126.605 109.554 126.416 109.642 126.153ZM113.33 130.313C112.829 130.475 112.867 131.47 113.484 131.41C113.512 131.411 113.535 131.406 113.56 131.404L114.013 130.522C113.898 130.328 113.667 130.208 113.33 130.313ZM103.696 150.024C103.671 149.809 103.515 149.657 103.318 149.743C103.083 149.844 102.929 149.705 102.707 149.642C102.095 150.885 103.653 151.266 103.696 150.024ZM103.128 144.815C103.884 144.554 103.774 143.971 103.129 143.638C102.265 143.657 102.39 144.864 103.128 144.815ZM102.572 146.996C102.627 147.239 102.684 147.494 102.75 147.783C103.125 147.891 103.402 147.801 103.659 147.565C103.659 147.387 103.659 147.207 103.659 146.957C103.578 146.877 103.463 146.763 103.37 146.672C103.044 146.692 102.791 146.749 102.572 146.996ZM105.57 144.121C105.624 145.768 107.508 143.959 106.215 143.685C105.849 143.569 105.571 143.775 105.57 144.121ZM114.14 124.643C113.353 123.621 112.743 124.517 113.306 125.403C113.889 125.42 113.895 125.415 114.14 124.643ZM104.272 148.237C104.208 148.412 104.158 148.547 104.091 148.728C104.175 148.993 104.279 149.164 104.388 149.263L104.919 148.228C104.72 148.178 104.462 148.251 104.272 148.237ZM102.663 140.72C102.539 140.981 102.576 141.259 102.61 141.541C102.841 141.639 103.063 141.732 103.265 141.817C104.119 141.325 103.47 140.577 102.663 140.72ZM106.351 137.888C105.951 137.775 105.668 137.687 105.451 138.138C106.093 139.645 107.28 138.348 106.351 137.888ZM107.511 139.097C107.312 139.207 107.138 139.302 106.952 139.406C107.254 141.046 109.152 139.775 107.511 139.097ZM105.68 134.866C105.66 135.096 105.642 135.314 105.621 135.559C106.523 136.654 107.375 134.248 105.68 134.866ZM109.793 132.075C109.337 131.626 108.787 131.906 108.42 132.314C108.689 133.383 109.434 132.756 109.793 132.075ZM104.885 145.277C104.488 145.132 104.259 145.32 104.034 145.604C103.952 146.914 105.562 146.23 104.885 145.277ZM106.647 140.89C106.361 140.89 106.14 140.89 105.925 140.89C105.793 141.107 105.483 141.177 105.529 141.524C106.107 142.132 106.906 141.754 106.647 140.89ZM116.875 124.945C116.875 124.714 116.875 124.51 116.875 124.221C115.54 123.662 115.815 126.26 116.875 124.945ZM105.491 147.115L105.593 146.917C105.535 146.976 105.502 147.043 105.491 147.115ZM107.458 142.294C107.346 142.529 106.935 142.435 106.962 142.731C107.121 143.079 107.285 143.256 107.448 143.306L107.935 142.357C107.776 142.265 107.591 142.217 107.458 142.294ZM103.956 136.693C104.312 136.885 104.428 137.11 104.561 137.523C104.705 137.217 104.859 137.127 105.145 137.017C105.19 136.213 104.282 135.938 103.956 136.693ZM107.624 131.51C107.922 131.314 107.98 130.954 108.17 130.635C107.791 130.376 107.422 130.589 107.012 130.477C106.834 130.909 107.178 131.476 107.624 131.51ZM112.586 132.563C112.597 132.111 112.387 131.879 111.99 131.8C111.603 131.958 111.603 131.958 111.437 132.448C111.699 132.985 112.182 132.673 112.586 132.563ZM104.121 142.445C104.033 142.857 104.409 143.015 104.379 143.428C105.299 143.198 105.24 141.595 104.121 142.445ZM103.968 139.742C104.173 139.894 104.377 140.047 104.594 140.208C104.774 140.162 104.967 140.113 105.171 140.061C105.171 139.897 105.171 139.757 105.171 139.563C104.705 139.498 104.142 139.075 103.968 139.742ZM83.1249 169.021C83.0472 169.271 82.98 169.484 82.9137 169.696C83.0894 170.114 83.4528 170.174 83.8233 170.212C83.9472 170.02 84.0528 169.858 84.1574 169.696C84.1987 169.696 84.2405 169.696 84.2817 169.696C84.3633 169.117 83.5329 169.068 83.1249 169.021ZM87.1161 169.183C86.6736 168.804 86.003 169.152 85.8998 169.696C85.9022 169.946 85.9373 170.179 86.208 170.295C86.4417 170.257 86.675 170.22 86.8987 170.184C87.0312 170.009 87.1497 169.852 87.2683 169.696C87.2165 169.522 87.1646 169.348 87.1161 169.183ZM101.452 149.167C101.603 149.216 101.754 149.266 101.934 149.325C102.035 149.147 102.121 148.992 102.217 148.823C101.985 148.554 101.888 148.172 101.452 148.172C101.1 147.966 100.916 148.413 100.839 148.674C100.962 148.977 101.054 149.272 101.452 149.167ZM101.452 152.153C101.796 152.22 102.201 152.221 102.314 151.815C102.132 151.443 101.804 151.285 101.452 151.157C100.734 151.079 101.018 151.736 101.159 152.153C101.256 152.153 101.354 152.153 101.452 152.153ZM101.452 140.209C102.161 140.206 102.623 138.933 101.452 139.089C101.452 139.131 101.452 139.172 101.452 139.214C100.724 139.157 100.936 140.026 101.452 140.209ZM101.452 143.195C101.582 143.234 101.713 143.273 101.913 143.333C101.913 142.988 102.195 142.746 102.006 142.38C101.834 142.324 101.643 142.262 101.452 142.2C101.452 142.241 101.452 142.283 101.452 142.324C101.109 142.44 101.011 142.747 100.863 143.01C101.053 143.186 101.234 143.257 101.452 143.195ZM90.2918 165.127C90.3725 165.505 90.6657 165.686 90.9504 165.883C91.1616 165.809 91.3531 165.742 91.5917 165.658C91.9973 164.735 90.7603 163.879 90.2918 165.127ZM87.7387 159.872C88.5739 159.822 89.0256 159.307 88.4448 158.681C88.1966 159.074 87.9509 159.463 87.7065 159.85C87.7195 159.857 87.7253 159.866 87.7387 159.872ZM89.4917 157.048C89.4849 157.049 89.4801 157.052 89.4734 157.054C89.2843 157.353 89.0961 157.65 88.9089 157.947C89.5397 158.966 91.1371 157.487 89.4917 157.048ZM82.3555 168.734C82.7328 168.444 82.8758 168.124 82.6733 167.851C82.476 168.165 82.284 168.472 82.0958 168.772C82.1755 168.769 82.2605 168.759 82.3555 168.734ZM89.2747 163.031C88.8749 163.256 88.6622 163.563 88.8134 164.053C89.1345 164.415 89.5065 164.117 89.9261 164.077C90.3859 163.423 89.9808 163.053 89.2747 163.031ZM89.4053 159.992C88.8614 159.717 88.8763 160.427 88.7755 160.813C89.1926 161.129 89.9702 161.636 90.0297 160.805C90.2779 160.291 89.7523 160.171 89.4053 159.992ZM88.7136 167.336C88.6757 167.289 88.5389 167.254 88.5053 167.283C88.1529 167.69 87.3293 167.58 87.4118 168.279C87.444 168.861 88.7952 168.845 88.6118 168.199C88.3368 167.792 88.8005 167.666 88.7136 167.336ZM95.2656 160.094C94.6301 160.505 94.9253 160.985 95.3712 161.393C95.8805 161.34 96.3701 160.881 96.1752 160.33C95.8574 160.248 95.5627 160.172 95.2656 160.094ZM94.4889 162.054C94.5225 161.807 94.3617 161.708 94.1361 161.63C93.6537 161.367 93.5453 161.76 93.2769 162.105C93.3101 162.789 94.2725 162.869 94.691 162.594C94.6421 162.422 94.4577 162.284 94.4889 162.054ZM92.5718 165.89C92.3745 165.955 92.2205 166.007 92.0813 166.053C91.032 167.993 94.3565 167.198 92.5718 165.89ZM86.5382 162.894C85.7673 162.821 85.619 164.209 86.5992 164.135C87.371 164.11 87.2577 162.965 86.5382 162.894ZM96.5942 153.605C97.055 153.786 97.4597 153.848 97.7193 153.313C97.5283 152.137 95.7677 152.534 96.5942 153.605ZM95.3083 157.097C94.8446 157.041 94.9339 157.911 95.1643 158.138C95.8085 158.666 96.6187 157.606 95.9409 157.028C95.7072 157.157 95.5185 157.182 95.3083 157.097ZM95.5584 152.301C97.1371 151.431 95.2497 150.415 94.7222 151.819C94.9944 152.012 95.2061 152.242 95.5584 152.301ZM87.4099 165.222C87.8448 166.091 88.9056 165.628 88.5969 164.693C88.0195 164.283 87.515 164.536 87.4099 165.222ZM95.2905 163.066C94.5537 163.402 94.908 164.073 95.5872 164.255C95.7782 163.99 96.2673 163.813 96.2049 163.481C96.0096 163.151 95.6755 162.884 95.2905 163.066ZM90.5616 155.753C90.4728 156.096 90.2323 156.355 90.6677 156.56C91.0497 157 91.4107 156.629 91.7261 156.328C91.7011 155.696 91.0934 155.269 90.5616 155.753ZM84.6072 167.534C84.5395 167.731 84.4747 167.919 84.4109 168.107C84.7339 168.734 85.4097 168.893 85.7717 168.242C85.6209 167.542 85.1736 167.544 84.6072 167.534ZM95.1955 167.162L95.7667 166.05C95.2545 165.876 94.5101 166.622 95.1955 167.162ZM90.4137 162.563C90.5597 162.665 90.6912 162.759 90.8429 162.865C92.0198 162.555 91.7275 161.281 90.5688 161.726C90.4992 162.021 90.3542 162.274 90.4137 162.563ZM84.2904 166.633C84.131 166.388 84.0307 166.165 83.8128 166.036C83.5766 166.412 83.3467 166.778 83.1206 167.139C83.5488 167.464 84.0432 167.225 84.2904 166.633ZM94.2614 150.691C94.8782 150.54 94.631 149.951 94.1649 149.661C93.9792 149.953 93.7939 150.244 93.6086 150.535C93.7574 150.671 93.9797 150.741 94.2614 150.691ZM97.0925 158.572C96.2261 158.74 96.2621 160.245 97.2168 159.751C97.7577 159.499 97.7553 158.618 97.0925 158.572ZM100.705 141.109C100.484 140.758 100.219 140.6 99.9777 140.597C99.8107 140.856 99.6422 141.116 99.4733 141.378C99.8011 141.909 100.535 141.803 100.705 141.109ZM98.2353 149.169C98.5003 149.547 98.8267 149.131 99.0739 148.97C99.1526 148.675 98.9678 148.469 98.8891 148.228C98.4864 148.219 98.1115 148.124 97.7635 148.431C97.7645 148.836 98.0601 148.903 98.2353 149.169ZM93.1166 151.64C93.1008 151.557 93.0715 151.491 93.0408 151.428C92.8857 151.672 92.7307 151.915 92.5761 152.159C92.8473 152.139 93.0878 151.974 93.1166 151.64ZM93.1277 157.45C92.5325 157.194 92.0443 156.888 91.7837 157.673C92.0366 158.604 93.0043 158.295 93.1277 157.45ZM93.108 154.52C92.9467 154.273 92.7427 154.124 92.4288 154.093C91.0113 154.971 92.9496 156.049 93.108 154.52ZM97.7093 144.264C97.7035 144.228 97.6934 144.194 97.6829 144.16C97.5777 144.324 97.4721 144.488 97.3665 144.653C97.5173 144.547 97.6478 144.405 97.7093 144.264ZM87.1272 160.769C87.0787 160.846 87.0312 160.921 86.9822 160.998C87.0384 160.955 87.0936 160.913 87.1536 160.866C87.144 160.831 87.1363 160.801 87.1272 160.769ZM97.5787 147.521C97.6281 147.126 97.6728 146.753 97.1817 146.6C96.5765 146.685 96.3576 146.994 96.6206 147.587C96.7536 147.651 96.9163 147.73 97.0766 147.807C97.26 147.702 97.4189 147.612 97.5787 147.521ZM100.453 156.118C100.477 155.866 100.308 155.621 100.075 155.565C98.3184 155.529 100.388 157.889 100.453 156.118ZM98.4307 143.229C99.0758 143.353 99.2808 142.578 98.9107 142.251C98.7019 142.575 98.4926 142.9 98.2819 143.228C98.3261 143.234 98.375 143.236 98.4307 143.229ZM96.0585 154.52C95.5315 154.046 94.8144 154.1 94.9992 154.962C95.2075 155.871 96.0926 155.188 96.0585 154.52ZM98.9011 154.225C98.3822 154.084 98.0755 154.286 97.8672 154.705C97.9982 154.895 98.1249 155.078 98.256 155.267C99.0129 155.471 99.2976 154.806 98.9011 154.225ZM98.8613 158.092C99.0312 157.621 99.0379 157.207 98.4633 156.934C97.5321 157.404 97.8096 158.494 98.8613 158.092ZM87.3945 162.042C87.0134 162.74 88.3881 163.017 88.6301 162.304C88.5201 161.459 87.8803 161.564 87.3945 162.042ZM98.951 145.722C98.8373 145.486 98.8512 145.192 98.5944 144.982C97.0325 145.262 98.6813 147.303 98.951 145.722ZM100.555 150.374C100.612 149.263 99.3312 149.436 99.3413 150.49C99.5573 150.569 99.7449 150.638 99.9225 150.702C100.141 150.589 100.338 150.487 100.555 150.374ZM91.1832 168.718C91.4563 168.459 91.4563 168.459 91.6368 167.871C90.7963 166.761 89.843 168.672 91.1832 168.718ZM86.6131 166.016C86.2771 166.049 86.1273 166.291 85.944 166.609C86.2133 166.83 86.4561 167.03 86.6933 167.225C87.5558 166.883 87.2237 166.39 86.6131 166.016ZM93.4392 153.147C93.6072 153.37 93.7641 153.578 93.9288 153.795C94.1731 153.786 94.3425 153.845 94.5633 153.706C94.3997 153.437 94.4841 153.18 94.4904 152.893C94.3881 152.248 93.5755 152.768 93.4392 153.147ZM100.412 152.741C100.082 152.506 99.8227 152.668 99.5429 152.806C99.6125 153.117 99.5885 153.317 99.5078 153.624C99.6533 153.677 99.7853 153.724 99.9173 153.772C100.129 153.677 100.333 153.585 100.56 153.484C100.503 153.197 100.455 152.959 100.412 152.741ZM94.4717 165.525C94.4717 165.257 94.4717 164.993 94.4717 164.689C93.7785 164.618 93.6398 164.704 93.4109 165.299C93.7997 165.751 94.1155 165.902 94.4717 165.525ZM99.479 147.504C99.9955 148.436 100.812 147.492 100.287 146.83C99.6984 146.536 99.3561 146.916 99.479 147.504ZM95.8176 149.194C96.3062 148.28 95.5147 147.856 94.8984 148.537C94.5715 149.182 95.3462 149.258 95.8176 149.194ZM96.4435 155.902C96.467 156.146 96.4886 156.366 96.5155 156.644C97.9733 156.947 97.8998 155.07 96.4435 155.902ZM94.0579 167.386C93.3614 167.653 93.9528 168.105 93.5333 168.562C93.7761 168.605 93.9931 168.642 94.2461 168.687C94.6483 168.169 94.5902 167.819 94.0579 167.386ZM96.5549 150.419C96.8453 150.401 97.0853 150.648 97.3982 150.533C97.9483 150.043 97.3027 149.358 96.707 149.614C96.4973 149.854 96.4195 150.105 96.5549 150.419ZM96.4233 162.026C96.4109 162.721 97.1837 162.956 97.5077 162.48C97.704 161.858 96.6201 161.337 96.4233 162.026ZM98.5665 160.193C98.2344 160.241 97.9531 160.294 97.8749 160.688C97.9641 160.857 98.0664 161.054 98.1989 161.306C98.2003 161.305 98.2022 161.305 98.2037 161.304L98.7014 160.334C98.6573 160.288 98.6093 160.238 98.5665 160.193ZM92.8997 163.162C92.3453 163.057 92.1384 163.443 91.9013 163.771C92.3112 164.243 93.0259 164.223 93.1997 163.546C93.0912 163.407 92.9923 163.28 92.8997 163.162ZM92.9606 161.08C92.9731 160.403 93.0317 159.881 92.1417 160.28C91.4347 160.698 92.4206 161.368 92.9606 161.08ZM89.0693 166.307C89.0333 166.425 88.9982 166.54 88.9541 166.686C89.7888 168.44 90.7325 165.547 89.0693 166.307ZM84.9101 164.535C84.6672 164.656 84.5395 164.83 84.4757 165.096C84.5424 165.235 84.6211 165.4 84.7013 165.569C85.8105 165.875 85.6809 164.859 84.9101 164.535ZM94.4784 156.448C94.4789 155.899 94.4789 155.899 93.9585 155.715C93.7003 155.829 93.4315 155.935 93.3705 156.317C93.6753 156.621 94.0694 156.859 94.4784 156.448ZM91.6238 159.206C91.5859 158.765 90.9475 158.442 90.5741 158.667C90.6125 159.393 91.2773 160.188 91.6238 159.206ZM94.2125 159.657C94.3267 159.282 94.3267 159.282 94.7193 159.035C93.9849 158.108 92.6952 159.119 94.2125 159.657ZM97.9377 151.874C98.4062 152.481 98.8118 151.987 99.0691 151.487C98.7893 151.214 98.4345 151.394 98.1321 151.165C98.0501 151.464 97.9977 151.657 97.9377 151.874ZM100.403 144.617C100.349 144.397 100.305 144.209 100.255 144.006C100.013 143.977 99.7728 143.944 99.5366 144.04C99.6158 144.601 99.6158 144.601 99.8136 144.838C99.9974 144.747 100.23 144.757 100.403 144.617ZM90.0057 169.696C90.155 168.594 89.0798 168.855 88.8859 169.696C88.9685 170.577 90.2793 170.648 90.2544 169.696C90.1718 169.696 90.0888 169.696 90.0057 169.696ZM92.9918 169.696C93.0331 169.696 93.0749 169.696 93.1161 169.696C93.168 169.307 92.8862 169.12 92.6395 168.909C92.1763 168.969 92.0597 169.368 91.8715 169.696C91.9128 169.696 91.9545 169.696 91.9963 169.696C92.0323 170.275 93.1877 170.473 92.9918 169.696ZM83.8781 184.101C83.5603 184.129 83.2776 184.153 82.9637 184.179C82.6397 185.024 83.4139 185.904 84.1339 185.11C84.0768 184.761 84.1886 184.322 83.8781 184.101ZM82.7702 185.733C82.6449 185.652 82.5216 185.609 82.4021 185.583L82.703 186.206C82.7573 186.062 82.8211 185.921 82.7702 185.733ZM84.7397 185.593C84.0681 186.029 84.5251 186.652 85.1333 186.755L85.6512 185.746C85.4371 185.578 85.008 185.663 84.7397 185.593ZM82.1045 174.917C83.051 174.633 82.9046 173.557 81.9917 173.588C81.0657 173.681 81.5117 174.691 82.1045 174.917ZM85.643 176.597C83.5685 176.227 84.5702 178.878 85.7573 177.324C85.607 177.074 85.5864 176.905 85.643 176.597ZM80.6961 174.973C79.7731 175.042 79.7318 176.328 80.5963 176.427C81.3998 176.199 81.2203 175.428 80.6961 174.973ZM82.9968 179.411C83.2113 179.047 83.5646 179.225 83.8944 179.293C84.2285 178.528 84.1267 177.875 83.1422 178.117C82.6699 178.5 83.2157 179.228 82.6305 179.473C82.7621 179.509 82.9037 179.571 82.9968 179.411ZM84.1464 175.733C84.0542 175.419 84.0149 175.071 83.5008 175C82.0181 175.484 83.7667 177.298 84.1464 175.733ZM85.7232 170.852C85.3776 170.203 84.6696 170.521 84.4296 171.101C84.6173 172.067 86.0309 171.843 85.7232 170.852ZM87.1397 178.748C87.1339 177.658 85.8192 178.019 85.7736 178.925C86.1336 179.427 86.9769 179.346 87.1397 178.748ZM87.275 171.278C87.4766 171.479 87.6619 171.662 87.8318 171.831C88.092 171.769 88.3075 171.719 88.5389 171.664C88.6133 171.524 88.6881 171.384 88.7885 171.197C88.2955 170.474 87.6139 170.4 87.275 171.278ZM86.6645 174.988C86.0505 175.137 85.5153 176.199 86.4681 176.319C87.3125 176.372 87.3134 175.227 86.6645 174.988ZM79.7784 180.15C79.7568 180.077 79.7261 180.01 79.6829 179.952L79.7784 180.15ZM86.472 172.1C85.6958 172.049 85.9358 173.47 86.6049 173.33C87.3907 173.299 87.3432 172.101 86.472 172.1ZM79.6872 174.288C79.7357 173.843 79.3997 173.627 79.0665 173.611C78.8827 173.906 78.719 174.168 78.5693 174.407C78.8337 174.867 79.7117 175.003 79.6872 174.288ZM80.0097 172.447C79.8945 173.201 80.7283 173.721 81.1243 172.967C81.4358 172.173 80.496 171.735 80.0097 172.447ZM82.6142 179.484C82.2312 179.673 81.708 179.549 81.443 179.931C81.7766 180.621 82.1304 181.105 82.7961 180.448C82.6925 180.054 82.655 179.839 82.6142 179.484ZM82.6224 179.478C82.6257 179.477 82.6272 179.475 82.6305 179.473C82.6248 179.472 82.6185 179.47 82.6128 179.468C82.6133 179.474 82.6137 179.478 82.6142 179.484C82.6171 179.482 82.6209 179.482 82.6238 179.48C82.6233 179.48 82.6224 179.479 82.6224 179.478ZM86.8853 182.225C87.4008 181.204 86.0673 180.498 85.8168 181.833C86.0222 182.147 86.6001 182.684 86.8853 182.225ZM84.4579 183.509C85.0397 184.019 85.4573 183.715 85.6401 183.027C85.1299 182.404 84.9773 182.394 84.4766 182.939C84.2774 183.133 84.2193 183.347 84.4579 183.509ZM83.6414 172.1C83.3419 172.175 83.0952 172.303 82.9531 172.567C83.0025 172.963 83.3429 173.141 83.5109 173.453C83.7715 173.328 84.0038 173.216 84.2265 173.11C84.2165 172.644 84.0725 172.289 83.6414 172.1ZM78.2529 175.604C78.1781 175.479 78.0907 175.391 77.9995 175.32C77.7989 175.642 77.688 175.82 77.688 175.82L77.9097 176.28C77.9419 176.276 77.9707 176.273 78.0072 176.268C78.0888 176.048 78.1699 175.828 78.2529 175.604ZM87.8443 177.788C88.3142 178.185 88.5081 177.39 88.7165 177.112C88.6229 176.982 88.5384 176.865 88.4505 176.743C87.5817 176.514 87.0715 177.168 87.8443 177.788ZM89.0673 179.094L89.5949 178.067C89.0928 178.133 88.6781 178.694 89.0673 179.094ZM92.5454 172.107C91.9032 172.289 91.7721 172.853 92.1216 173.147L92.6342 172.149C92.6045 172.135 92.5776 172.116 92.5454 172.107ZM82.5043 177.512C83.2843 176.692 82.2019 176.542 81.6149 176.751C81.0749 177.469 81.8697 177.873 82.5043 177.512ZM80.8435 177.984C80.1523 178.244 80.1523 178.244 79.9449 178.934C80.1293 179.452 81.0489 179.481 80.9549 178.852C80.8665 178.542 81.2755 178.149 80.8435 177.984ZM90.5457 170.684C90.2649 171.228 90.7613 172.322 91.331 171.826C91.7457 171.363 91.2859 170.364 90.5457 170.684ZM82.4203 182.695C82.2307 182.675 82.0296 182.652 81.7776 182.625C80.4125 184.006 83.5041 183.978 82.4203 182.695ZM89.8982 172.099C89.6093 172.188 89.3587 172.245 89.0587 172.286C89.1489 172.603 89.1561 172.846 89.0539 173.134C89.3193 173.585 89.7533 173.106 90.1094 172.999C90.1502 172.871 90.1992 172.717 90.2486 172.562C90.1305 172.405 90.0192 172.259 89.8982 172.099ZM81.2928 181.808C81.3696 181.405 80.8617 181.163 80.4825 181.096C80.4302 181.148 80.3721 181.205 80.316 181.262L80.7461 182.153C80.9453 182.119 81.1286 182.011 81.2928 181.808ZM83.3049 182.281C83.6371 182.084 84.0773 182.175 84.1781 181.644C83.5627 180.445 82.2557 181.629 83.3049 182.281ZM88.9315 175.553C88.9747 175.743 89.0184 175.938 89.063 176.137C89.6539 176.532 89.9966 176.121 90.2333 175.589C89.7427 175.121 89.3059 175.083 88.9315 175.553ZM78.9446 177.751C79.2811 177.47 79.6257 177.569 79.7933 177.099C79.2317 176.049 77.7072 176.97 78.9446 177.751ZM85.0445 180.896C85.4073 180.869 85.2859 180.404 85.5821 180.317C85.788 179.029 83.3443 179.943 85.0445 180.896ZM90.5016 173.991C90.5486 174.477 90.8803 174.672 91.2648 174.816L91.6104 174.142C91.5768 174.017 91.5168 173.862 91.4261 173.644C91.0185 173.471 90.7824 173.748 90.5016 173.991ZM83.1403 187.113L83.6808 188.233C83.6961 188.232 83.7077 188.236 83.7235 188.234C84.6374 187.673 84.0456 186.972 83.1403 187.113ZM82.5417 171.556C82.8398 171.222 82.608 170.725 82.163 170.631C80.8209 170.956 81.7416 172.039 82.5417 171.556ZM88.4251 173.889C87.4353 173.347 87.0115 174.385 88.0037 174.822C88.5878 174.55 88.6219 174.467 88.4251 173.889ZM87.5217 180.151C87.72 180.316 87.8107 180.54 87.864 180.797C88.0056 180.791 88.1246 180.761 88.2321 180.721L88.5427 180.116C88.5518 180.006 88.5605 179.897 88.5691 179.792C87.9273 179.604 87.8289 179.637 87.5217 180.151ZM85.4558 174.56C86.2205 173.689 84.6014 173.397 84.4171 174.401C84.6206 174.546 84.8001 174.675 85.1001 174.888C85.1745 174.677 85.259 174.61 85.4558 174.56ZM86.0352 184.639C86.0347 184.727 86.063 184.801 86.1019 184.868L86.4557 184.179C86.2113 184.189 86.0016 184.323 86.0352 184.639Z" fill="#421B36"/>
<path d="M83.7988 187.321C82.8326 185.833 82.0574 184.213 81.2803 182.623C80.0889 180.183 78.9609 177.713 77.8507 175.235C75.4295 169.833 73.1025 164.387 70.8316 158.919C69.9571 156.814 69.0873 154.706 68.2521 152.585C68.0707 152.124 67.3185 152.325 67.5023 152.792C69.2467 157.223 71.1043 161.613 72.9739 165.993C75.2831 171.404 77.6246 176.807 80.171 182.11C81.0806 184.005 81.9801 185.947 83.1273 187.713C83.399 188.132 84.0724 187.742 83.7988 187.321Z" fill="#421B36"/>
<path d="M77.7262 80.1351C82.9985 66.5626 101.278 63.493 110.726 74.5714C113.714 78.0749 115.93 83.1711 117.594 90.3068C122.233 110.216 105.476 114.504 105.476 114.504L106.728 127.128C105.07 133.86 97.0495 136.68 91.5425 132.468L86.9542 128.959L84.0583 110.178C84.0583 110.178 77.9878 96.0289 76.842 86.3741C76.5871 84.2271 76.9543 82.1228 77.7262 80.1351Z" fill="#CC8770"/>
<path d="M89.9869 67.6289C89.9869 67.6289 88.5714 83.0998 84.5543 89.4099C80.5371 95.7199 91.2455 102.941 89.2007 113.506C87.1559 124.073 94.7571 128.593 92.6552 134.223C91.2498 137.987 93.3277 144.854 94.8589 148.992C95.5285 150.802 94.4327 152.78 92.5391 153.153L88.9367 153.862C80.7551 155.822 79.8148 153.697 77.8655 149.552C72.8864 138.963 71.8871 122.199 77.9063 119.525C78.2375 119.378 73.6621 91.8627 73.6621 91.8627C73.6621 91.8627 73.9866 69.9684 89.9869 67.6289Z" fill="#421B36"/>
<path d="M105.994 80.6516C106.194 81.374 105.827 82.105 105.176 82.2845C104.526 82.4641 103.836 82.0244 103.637 81.302C103.438 80.5796 103.804 79.8486 104.455 79.669C105.106 79.4895 105.795 79.9292 105.994 80.6516Z" fill="#421B36"/>
<path d="M92.1132 84.4797C92.3124 85.2021 91.9462 85.9332 91.2953 86.1127C90.6444 86.2922 89.9551 85.8525 89.7554 85.1301C89.5562 84.4077 89.9225 83.6767 90.5734 83.4972C91.2247 83.3176 91.914 83.7573 92.1132 84.4797Z" fill="#421B36"/>
<path d="M85.0775 80.2693C86.05 79.21 87.4991 78.3733 88.8393 77.8616C90.1795 77.35 91.4889 77.3711 92.8828 77.2031C93.4396 77.1359 93.67 76.2959 93.0263 76.1432C89.7652 75.3709 86.603 77.4695 84.6599 79.8517C84.4243 80.1402 84.8159 80.554 85.0775 80.2693Z" fill="#421B36"/>
<path d="M100.16 94.6932C101.525 97.0016 104.937 96.7875 106.694 95.082C107.212 94.58 106.458 93.8806 105.921 94.3088C104.113 95.7507 102.37 95.395 100.459 94.3937C100.271 94.2949 100.045 94.4979 100.16 94.6932Z" fill="#421B36"/>
<path d="M95.7016 114.128C99.5973 115.716 103.85 115.7 107.815 114.329C108.386 114.132 108.158 113.249 107.563 113.415C103.61 114.52 99.7759 114.643 95.7247 114.044C95.669 114.035 95.6488 114.106 95.7016 114.128Z" fill="#421B36"/>
<path opacity="0.3" d="M91.9401 93.247C94.0083 92.6765 95.4454 91.3461 95.1501 90.2753C94.8547 89.2045 92.9387 88.7989 90.8705 89.3694C88.8023 89.9399 87.3652 91.2704 87.6605 92.3411C87.9559 93.4119 89.8719 93.8175 91.9401 93.247Z" fill="#421B36"/>
<path opacity="0.3" d="M113.959 84.9106C114.254 85.9815 112.817 87.312 110.749 87.8823C108.68 88.453 106.765 88.0469 106.469 86.9765C106.174 85.9056 107.611 84.5751 109.679 84.0044C111.747 83.4341 113.663 83.8397 113.959 84.9106Z" fill="#421B36"/>
<path d="M105.788 73.5937C102.834 71.7433 99.0969 73.503 98.4734 76.839C97.6415 81.291 101.091 86.8201 104.326 89.5868C104.879 90.0596 105.605 89.3396 105.125 88.7876C102.944 86.281 100.77 83.6761 99.8668 80.3934C99.2946 78.3126 99.1175 75.3514 101.547 74.2873C102.697 73.7838 104.404 73.6671 105.613 74.0065C105.864 74.077 106.003 73.7286 105.788 73.5937Z" fill="#421B36"/>
<path d="M89.5209 66.5368C90.8913 62.9747 93.3901 59.8542 96.4084 57.5536C96.8154 57.2435 96.4372 56.5442 95.9961 56.8485C92.5559 59.2221 90.3997 62.4798 89.3025 66.4768C89.2636 66.6198 89.4695 66.6702 89.5209 66.5368Z" fill="#421B36"/>
<path d="M89.3725 67.6799C88.8239 64.2277 88.5416 60.7136 88.6093 57.2192C88.6218 56.5626 87.5979 56.5621 87.5888 57.2192C87.5379 60.8663 88.0208 64.2767 89.1762 67.7341C89.2179 67.8608 89.3931 67.808 89.3725 67.6799Z" fill="#421B36"/>
<path d="M82.4465 93.148C82.928 98.0104 85.5516 102.003 87.8897 106.163C89.3091 108.689 90.6728 111.378 90.8931 114.317C91.1072 117.175 89.84 119.967 90.2292 122.817C90.6132 125.631 92.8049 127.243 93.9209 129.684C94.7768 131.556 94.3078 134.001 94.2209 135.982C93.9934 141.152 94.962 145.686 98.3249 149.754C98.7118 150.222 99.3675 149.554 98.9897 149.089C95.083 144.282 95.1636 139.17 95.323 133.336C95.359 132.013 95.3729 130.618 94.831 129.383C93.4587 126.255 90.9665 124.798 91.1393 120.963C91.254 118.416 92.0748 116.098 91.7201 113.518C91.4331 111.429 90.6152 109.462 89.6355 107.61C87.127 102.869 83.1987 98.6603 82.5195 93.1484C82.5137 93.1024 82.4417 93.1009 82.4465 93.148Z" fill="#421B36"/>
<path d="M101.694 64.7423C110.557 62.3831 119.309 66.9469 122.564 75.4592C125.839 84.0253 121.458 92.1949 120.576 100.727C120.521 101.263 121.342 101.248 121.407 100.727C122.632 90.8878 127.529 81.596 121.883 72.1611C117.59 64.9866 109.553 62.5069 101.657 64.6083C101.571 64.6318 101.608 64.7653 101.694 64.7423Z" fill="#421B36"/>
<path d="M70.4922 126.479C70.4922 126.479 80.5251 114.506 83.3946 108.682C85.6443 104.116 81.0234 102.307 79.2987 104.258C78.7357 104.895 73.7255 108.45 73.7255 108.45C73.7255 108.45 72.5394 84.9585 69.0411 83.6539C65.5429 82.3492 67.7605 91.8859 67.7605 91.8859C67.7605 91.8859 63.6584 83.5982 61.1461 83.6558C58.6338 83.7134 58.2848 85.6353 58.2848 85.6353C58.2848 85.6353 54.6066 83.062 54.3215 87.3287C54.1751 89.5214 57.2768 99.034 57.2768 99.034C57.2768 99.034 49.7677 89.0812 46.6698 91.7414C43.5719 94.4015 48.5111 97.2508 51.8975 104.291C55.2839 111.33 58.2306 119.617 58.2306 119.617C58.2306 119.617 45.4323 134.509 46.5911 134.226C48.1645 133.841 61.8512 139.599 62.216 141.536C62.216 141.536 71.2175 125.987 70.4922 126.479Z" fill="#CC8770"/>
<path d="M75.4347 95.7988C72.186 95.2122 70.7167 96.7929 69.9281 97.8037C69.1395 98.8146 68.8404 100.143 68.875 101.424C68.9321 103.556 69.9483 105.715 71.7545 106.847C73.5607 107.979 76.1518 107.869 77.6566 106.359L75.4347 95.7988Z" fill="#CC8770"/>
<path d="M75.4947 95.1619C71.8981 94.2979 68.2285 97.0046 67.8282 100.622C67.3559 104.89 70.8387 108.43 75.0407 108.316C75.5725 108.301 75.5591 107.542 75.0407 107.499C71.4349 107.198 68.5352 104.561 68.8583 100.759C69.1184 97.6934 72.2375 95.1647 75.3613 95.6467C75.6723 95.6951 75.8168 95.2391 75.4947 95.1619Z" fill="#421B36"/>
<path d="M72.5707 110.951C73.7597 109.989 74.844 108.905 76.0397 107.949C77.3328 106.914 78.7402 106.053 80.089 105.098C80.5958 104.739 80.1667 104.003 79.6032 104.267C76.7774 105.591 73.8312 107.984 72.1181 110.602C71.9266 110.896 72.3336 111.142 72.5707 110.951Z" fill="#421B36"/>
<path d="M77.8006 100.759C75.8528 99.56 73.2929 99.4558 71.3878 100.85C70.8814 101.22 71.3129 102.011 71.8879 101.706C73.7359 100.725 75.6665 100.34 77.7219 100.946C77.8347 100.979 77.898 100.819 77.8006 100.759Z" fill="#421B36"/>
<path d="M58.7178 86.4854C61.5142 91.2091 63.5053 96.3595 64.6184 101.734C64.7197 102.224 65.4695 102.017 65.3682 101.528C64.2421 96.0911 62.2174 90.8697 59.3893 86.0927C59.1349 85.6627 58.4624 86.0539 58.7178 86.4854Z" fill="#421B36"/>
<path d="M58.7059 104.03C61.9089 102.961 65.1854 102.133 68.5118 101.553C69.0038 101.467 68.7955 100.718 68.3049 100.804C64.9785 101.383 61.702 102.211 58.499 103.28C58.0267 103.438 58.2292 104.189 58.7059 104.03Z" fill="#421B36"/>
<path d="M67.2177 91.2316C67.9933 93.1602 68.5703 95.1613 68.9394 97.2076C69.0282 97.6991 69.7775 97.4908 69.6892 97.0007C69.3201 94.9549 68.7431 92.9533 67.9674 91.0247C67.7831 90.5663 67.0305 90.7669 67.2177 91.2316Z" fill="#421B36"/>
<path d="M56.9513 99.6192C57.8206 100.881 58.4801 102.266 58.903 103.739C59.0407 104.219 59.7915 104.015 59.6527 103.532C59.2121 101.999 58.5276 100.54 57.6228 99.2266C57.5038 99.0538 57.2815 98.9756 57.091 99.0869C56.9196 99.1873 56.8313 99.4455 56.9513 99.6192Z" fill="#421B36"/>
<path d="M146.089 219.085L82.9602 216.208C71.8794 215.703 65.4891 203.631 71.4584 194.478L105.464 142.334L139.47 90.1892C145.438 81.0361 159.29 81.6673 164.402 91.3253L193.525 146.346L222.648 201.367C227.76 211.025 220.299 222.466 209.217 221.961L146.089 219.085Z" fill="white" stroke="#2563EB" stroke-width="3" stroke-miterlimit="10"/>
<path d="M82.3198 204.998C80.4584 204.865 79.1878 203.073 80.2697 201.379C80.4507 201.095 80.6374 200.815 80.8212 200.533C81.6963 199.191 82.5708 197.85 83.4459 196.509C84.8921 194.291 86.3379 192.074 87.7841 189.857C89.6974 186.923 91.6107 183.989 93.524 181.055C95.7809 177.595 98.0379 174.134 100.294 170.674C102.777 166.867 105.259 163.061 107.742 159.254C110.319 155.301 112.897 151.349 115.475 147.396C118.054 143.44 120.634 139.485 123.214 135.529C125.666 131.77 128.117 128.01 130.569 124.251C132.775 120.869 134.98 117.487 137.186 114.105C139.02 111.292 140.853 108.48 142.687 105.668C144.049 103.58 145.411 101.492 146.773 99.4031C147.535 98.2343 148.298 97.0655 149.06 95.8967C149.179 95.7143 149.293 95.5266 149.418 95.3481C150.564 93.7108 153.101 93.8999 154.058 95.6193C154.453 96.3278 154.818 97.0545 155.197 97.7711C156.132 99.537 157.066 101.303 158.001 103.068C159.399 105.709 160.797 108.35 162.195 110.991C163.951 114.31 165.708 117.628 167.465 120.947C169.479 124.752 171.493 128.558 173.508 132.364C175.668 136.446 177.829 140.528 179.989 144.61C182.215 148.816 184.442 153.022 186.668 157.229C188.85 161.35 191.031 165.471 193.212 169.592C195.247 173.437 197.283 177.282 199.318 181.127C201.098 184.49 202.879 187.854 204.658 191.217C206.1 193.94 207.541 196.663 208.983 199.387C209.975 201.262 210.967 203.136 211.96 205.011C212.402 205.846 212.86 206.675 213.286 207.518C214.209 209.341 212.61 210.898 210.813 210.853C210.617 210.848 210.42 210.835 210.224 210.826C208.891 210.766 207.558 210.705 206.224 210.644C203.795 210.533 201.366 210.422 198.936 210.311C195.624 210.161 192.312 210.01 189 209.859C185.014 209.677 181.029 209.495 177.043 209.314C172.615 209.112 168.188 208.911 163.76 208.709C159.058 208.495 154.356 208.28 149.653 208.066C144.906 207.85 140.158 207.634 135.41 207.417C130.827 207.208 126.244 206.999 121.66 206.791C117.469 206.6 113.279 206.409 109.088 206.218C105.459 206.053 101.83 205.887 98.2016 205.722C95.3652 205.593 92.5289 205.463 89.6926 205.334C87.8585 205.251 86.024 205.167 84.1899 205.084C83.5668 205.054 82.9433 205.026 82.3198 204.998C81.486 204.96 81.488 206.256 82.3198 206.294C83.0038 206.325 83.6883 206.356 84.3723 206.387C86.2812 206.474 88.1897 206.561 90.0987 206.648C93.0166 206.781 95.934 206.914 98.852 207.047C102.563 207.216 106.274 207.385 109.985 207.554C114.295 207.751 118.604 207.947 122.914 208.143C127.566 208.355 132.218 208.567 136.87 208.779C141.667 208.998 146.465 209.217 151.262 209.435C155.989 209.65 160.716 209.866 165.443 210.081C169.885 210.284 174.326 210.486 178.767 210.688C182.707 210.868 186.647 211.047 190.587 211.227C193.809 211.374 197.032 211.521 200.255 211.667C202.545 211.772 204.835 211.876 207.125 211.98C208.267 212.032 209.408 212.087 210.55 212.136C211.588 212.181 212.602 212.002 213.444 211.347C214.879 210.229 215.212 208.422 214.387 206.828C213.92 205.927 213.438 205.034 212.963 204.138C211.933 202.192 210.903 200.246 209.873 198.301C208.392 195.503 206.911 192.705 205.43 189.907C203.601 186.453 201.773 182.998 199.945 179.544C197.873 175.63 195.802 171.717 193.73 167.804C191.519 163.627 189.308 159.45 187.098 155.273C184.852 151.03 182.606 146.786 180.36 142.543C178.183 138.429 176.005 134.315 173.827 130.201C171.814 126.397 169.8 122.593 167.787 118.789C166.06 115.527 164.334 112.265 162.607 109.003C161.262 106.461 159.916 103.918 158.57 101.376C157.71 99.7506 156.849 98.1249 155.989 96.4991C155.468 95.5156 155.001 94.3698 154.086 93.6916C152.239 92.3241 149.561 92.8358 148.291 94.7049C148.151 94.9094 148.02 95.1201 147.884 95.3274C147.084 96.5548 146.284 97.7822 145.483 99.0095C144.079 101.164 142.673 103.319 141.268 105.474C139.38 108.37 137.491 111.265 135.603 114.161C133.341 117.629 131.08 121.097 128.818 124.565C126.326 128.386 123.834 132.207 121.342 136.028C118.732 140.03 116.121 144.033 113.511 148.036C110.904 152.034 108.296 156.033 105.689 160.031C103.205 163.839 100.722 167.647 98.2385 171.455C96.0008 174.886 93.763 178.318 91.5252 181.749C89.6547 184.618 87.7836 187.486 85.9131 190.354C84.5307 192.474 83.1488 194.593 81.7664 196.713C80.994 197.898 80.2212 199.082 79.4489 200.266C79.3304 200.448 79.207 200.628 79.0928 200.813C78.4198 201.902 78.3555 203.14 78.9612 204.277C79.64 205.551 80.9158 206.194 82.3193 206.294C83.1521 206.353 83.1483 205.057 82.3198 204.998Z" fill="#2563EB"/>
<path d="M137.089 127.815C137.089 127.815 137.478 168.194 141.214 171.08C144.95 173.965 153.778 172.83 154.437 171.669C155.096 170.507 162.362 127.76 160.825 127.457C139.239 123.198 137.089 127.815 137.089 127.815Z" fill="#2563EB"/>
<path d="M151.758 197.013C156.835 193.86 158.395 187.188 155.241 182.11C152.088 177.033 145.416 175.473 140.338 178.626C135.261 181.78 133.702 188.452 136.855 193.529C140.009 198.607 146.681 200.166 151.758 197.013Z" fill="#2563EB"/>
<path d="M185.484 122.157C185.484 122.157 184.957 118.268 182.961 116.971C180.375 115.29 172.133 114.611 170.022 116.899C167.91 119.187 170.36 122.174 172.046 122.114C173.732 122.054 177.801 121.11 179.43 121.496C180.905 121.846 180.9 122.866 180.9 122.866C180.9 122.866 172.495 124.112 171.653 127.344C170.81 130.575 173.864 130.969 173.864 130.969C173.864 130.969 172.714 135.527 178.052 135.529C178.052 135.529 178.197 137.771 180.61 138.169C183.022 138.568 188.58 137.191 188.58 137.191C188.58 137.191 191.404 142.409 192.125 142.177C194.534 141.402 194.556 132.323 191.653 131.149C191.653 131.149 191.738 127.545 189.599 126.447L188.504 126.044C188.504 126.044 188.068 122.436 185.484 122.157Z" fill="#CC8770"/>
<path d="M178.481 135.798C182.047 132.6 186.921 131.122 191.664 131.743C192.159 131.808 192.154 131.03 191.664 130.966C186.719 130.317 181.639 131.922 177.931 135.247C177.558 135.582 178.109 136.131 178.481 135.798Z" fill="#421B36"/>
<path d="M174.285 131.234C177.787 127.388 183.186 125.486 188.324 126.35C188.814 126.432 189.024 125.683 188.531 125.6C183.122 124.691 177.435 126.621 173.736 130.684C173.399 131.054 173.948 131.605 174.285 131.234Z" fill="#421B36"/>
<path d="M176.613 124.526C179.28 122.906 182.478 122.271 185.559 122.787C186.049 122.869 186.259 122.119 185.766 122.037C182.475 121.486 179.076 122.12 176.221 123.854C175.794 124.114 176.184 124.786 176.613 124.526Z" fill="#421B36"/>
<path d="M169.465 119.143C170.516 119.474 171.712 119.276 172.588 118.603C173.433 117.954 173.934 116.924 173.937 115.86C173.938 115.359 173.161 115.359 173.159 115.86C173.157 116.682 172.774 117.49 172.117 117.992C171.425 118.52 170.494 118.652 169.672 118.393C169.193 118.242 168.988 118.993 169.465 119.143Z" fill="#421B36"/>
<path d="M172.216 129.534C173.07 129.331 173.833 128.761 174.258 127.99C174.746 127.103 174.751 126.043 174.344 125.127C174.259 124.935 173.979 124.89 173.812 124.987C173.614 125.103 173.587 125.327 173.673 125.519C173.971 126.191 173.925 127.012 173.558 127.647C173.223 128.226 172.656 128.63 172.009 128.784C171.522 128.9 171.728 129.65 172.216 129.534Z" fill="#421B36"/>
<path d="M174.548 134.553C175.573 134.216 176.427 133.458 176.85 132.462C177.31 131.375 177.204 130.105 176.6 129.096C176.343 128.667 175.67 129.058 175.928 129.489C176.407 130.288 176.507 131.297 176.138 132.162C175.809 132.934 175.137 133.542 174.342 133.803C173.868 133.958 174.071 134.709 174.548 134.553Z" fill="#421B36"/>
<path d="M179.663 137.628C180.531 137.453 181.311 136.904 181.774 136.149C182.267 135.343 182.368 134.312 182.058 133.422C181.989 133.224 181.792 133.092 181.58 133.151C181.388 133.203 181.239 133.429 181.308 133.629C181.554 134.334 181.495 135.114 181.102 135.756C180.739 136.348 180.132 136.742 179.456 136.878C179.25 136.92 179.132 137.164 179.184 137.356C179.244 137.571 179.457 137.67 179.663 137.628Z" fill="#421B36"/>
<path d="M45.5518 171.744L47.2812 174.017C47.2812 174.017 48.4313 175.881 52.879 180.806L63.8066 175.47L55.0102 159.766L45.5518 171.744Z" fill="#3B82F6"/>
<path opacity="0.3" d="M69.3521 169.694C69.3108 169.694 69.2695 169.694 69.2283 169.694C69.3531 170.18 68.8692 170.28 68.5241 170.463C68.1238 170.362 67.9476 170.067 67.8593 169.694C67.9011 169.694 67.9423 169.694 67.9841 169.694C67.8382 169.473 67.8439 169.237 67.9111 168.987C68.4555 169.063 69.3751 168.834 69.3521 169.694ZM64.9975 169.694C64.8862 170.57 66.2681 170.417 66.2412 169.694C66.283 169.694 66.3243 169.694 66.366 169.694C66.1452 168.845 64.9836 168.723 64.9975 169.694ZM62.2035 169.179C62.1401 169.348 62.0758 169.521 62.0115 169.694C62.0921 169.853 62.1732 170.011 62.2457 170.154C62.683 170.221 63.2196 170.206 63.3795 169.694C63.4601 169.069 62.6335 169.004 62.2035 169.179ZM71.3239 169.147C71.1156 169.267 70.9985 169.513 70.8449 169.694C70.9078 169.821 70.9707 169.948 71.0292 170.066C71.5673 170.213 72.2782 170.637 72.2139 169.694C72.3161 169.256 71.671 169.063 71.3239 169.147ZM64.8478 164.975C64.3471 164.362 63.7135 164.373 63.3905 165.153C63.6334 165.368 63.7126 165.732 64.0702 165.829C64.3803 165.587 65.0431 165.487 64.8478 164.975ZM63.2902 166.625C63.3929 166.23 63.0675 166.011 62.718 165.993L62.1411 166.939C62.4075 167.459 63.0871 167.427 63.2902 166.625ZM67.8473 168.393C67.8473 168.159 67.8473 167.936 67.8473 167.709C67.5363 167.541 67.2315 167.441 66.8614 167.524C66.1635 168.494 66.9449 169.145 67.8473 168.393ZM68.1631 157.326C68.3201 157.589 68.0782 157.74 68.0028 157.944C68.3753 158.657 68.9412 158.362 69.3535 157.772C69.3867 157.185 68.3859 156.662 68.1631 157.326ZM71.2798 161.337C71.2913 161.335 71.3043 161.333 71.3163 161.331L71.0393 160.572C70.915 160.988 70.9692 161.048 71.2798 161.337ZM70.1028 158.411C69.8081 158.656 69.5398 158.869 69.3737 159.172C69.498 159.362 69.6094 159.531 69.7097 159.683C70.0495 159.79 70.3875 159.669 70.6332 159.459L70.3059 158.561C70.2367 158.513 70.1676 158.465 70.1028 158.411ZM67.0975 165.865C68.0321 165.643 67.8401 164.31 66.8715 164.51C66.414 165.077 66.3742 165.606 67.0975 165.865ZM69.5475 156.483L69.4908 156.328C69.4971 156.372 69.5081 156.418 69.5254 156.466C69.5331 156.472 69.5398 156.477 69.5475 156.483ZM65.1833 166.201C65.1262 166.363 65.0657 166.533 65.0014 166.717C65.0998 166.916 65.1977 167.115 65.298 167.319C66.5047 167.491 66.5379 165.375 65.1833 166.201ZM67.8967 163.494C68.059 164.234 68.6791 164.52 69.2067 163.925C69.486 163.041 68.2908 162.826 67.8967 163.494ZM69.3684 168.124C69.6094 168.903 70.7287 168.794 70.8027 167.987C70.3385 167.362 69.691 167.364 69.3684 168.124ZM68.0091 166.493C68.142 166.814 68.1747 167.092 68.4195 167.361C69.9574 167.188 68.9868 165.117 68.0091 166.493ZM63.57 167.672C63.271 168.03 63.4399 168.602 63.8974 168.709C64.255 168.697 64.3937 168.286 64.7484 168.16C64.6563 167.407 64.1311 167.401 63.57 167.672ZM65.4852 162.922C64.9644 163.365 64.9193 163.54 65.2155 164.128C66.3099 164.43 66.6295 163.037 65.4852 162.922ZM66.2431 160.59C66.2153 160.503 66.1827 160.435 66.1481 160.372L65.5966 161.276C65.9518 161.39 66.3094 161.203 66.2431 160.59ZM72.906 165.688L72.5763 164.785C72.4764 164.875 72.3948 164.988 72.3492 165.124C72.4687 165.423 72.678 165.618 72.906 165.688ZM72.1327 167.139C72.4567 166.227 71.1684 165.374 71.0062 166.663C71.214 167.065 71.6897 167.466 72.1327 167.139ZM69.2369 160.652C68.9739 159.606 67.9433 159.807 68.0139 160.838C68.419 161.271 69.0795 161.295 69.2369 160.652ZM61.7686 168.378C61.7667 168.211 61.6793 168.04 61.554 167.901L61.0006 168.808C61.2958 168.918 61.7638 168.691 61.7686 168.378ZM71.7607 163.061C71.4871 163.168 71.2639 163.255 70.9985 163.36C70.9673 163.863 71.3307 164.847 71.8059 164.175C71.8126 163.947 71.9436 163.863 72.0963 163.755C72.1303 163.728 72.151 163.701 72.1711 163.674L71.9979 163.199C71.9163 163.14 71.8294 163.091 71.7607 163.061ZM66.7875 162.725C68.3811 162.817 68.0283 161.175 66.6142 161.741C66.8878 162.083 66.5278 162.363 66.7875 162.725ZM69.5571 165.055C69.5614 165.772 70.3289 165.998 70.6313 165.297C71.0676 164.444 69.7534 164.225 69.5571 165.055ZM69.5801 161.758C69.2417 163.207 71.1468 162.938 70.555 161.825C70.2406 161.735 69.9324 161.505 69.5801 161.758ZM73.6606 168.392C73.6207 168.139 73.5838 167.906 73.5454 167.663C72.03 167.292 72.2897 169.178 73.6606 168.392ZM67.2699 159.783C67.4278 159.631 67.6467 159.549 67.7316 159.377C67.5655 158.885 67.4527 158.699 67.183 158.677L66.7505 159.386C66.8417 159.491 67.0001 159.602 67.2699 159.783ZM74.1929 169.215C74.1219 169.282 74.0479 169.361 73.9711 169.458C74.0129 169.549 74.0465 169.622 74.0801 169.695C74.0931 169.93 74.1219 170.155 74.2755 170.298L74.5404 170.167L74.1929 169.215ZM63.8686 174.826C64.6764 174.998 65.263 174.128 64.4595 173.607C63.6286 173.014 63.1707 174.294 63.8686 174.826ZM65.1775 172.306C65.1243 172.524 65.0705 172.74 65.0091 172.989C65.1079 173.093 65.2164 173.208 65.3086 173.305C66.8609 173.491 66.5283 171.406 65.1775 172.306ZM64.518 171.779C65.1569 171.031 64.4638 170.588 63.6881 170.489C63.4495 171.131 63.6852 172.464 64.518 171.779ZM67.8535 171.219C67.7129 170.699 67.7129 170.699 67.1599 170.486C66.5206 170.61 66.5163 171.312 66.75 171.795C67.182 171.718 67.627 171.754 67.8535 171.219ZM66.5398 174.052C66.5403 174.075 66.5436 174.095 66.5451 174.117L67.4335 173.678C67.135 173.509 66.8719 173.637 66.5398 174.052ZM56.1151 178.475C56.0417 178.794 56.1579 179.027 56.3455 179.157L57.3843 178.644C57.1308 178.006 56.4977 177.877 56.1151 178.475ZM69.3919 171.367C69.5484 171.684 70.0294 171.628 70.2214 171.938C70.5564 172.07 70.5603 171.644 70.6759 171.439C71.0715 170.857 69.8206 169.977 70.002 170.94C69.7327 170.987 69.4759 171.059 69.3919 171.367ZM62.0585 176.014C62.1583 176.083 62.2587 176.14 62.358 176.187L63.3156 175.713C62.9959 174.779 62.0863 174.94 62.0585 176.014ZM57.823 176.638C57.7279 176.897 57.6252 177.176 57.5345 177.423C57.786 178.013 58.3985 177.847 58.7374 177.439C58.554 176.599 58.4974 176.548 57.823 176.638ZM72.4899 171.179L73.4931 170.683C73.0803 170.468 72.5311 170.647 72.4899 171.179ZM60.3723 175.987C60.2431 175.528 60.1011 175.119 59.4372 175.153C59.058 175.363 59.1411 175.747 59.1943 176.115C59.3854 176.553 60.0761 176.118 60.3723 175.987ZM58.0687 173.612L57.6041 174.374C58.2847 175.563 59.6393 173.393 58.0687 173.612ZM68.7795 172.138C68.5303 172.184 68.2937 172.228 68.0547 172.273C67.9975 172.436 67.9443 172.588 67.8915 172.737C67.9932 173.013 68.203 173.149 68.4257 173.188L69.2019 172.805C69.2475 172.615 69.1476 172.378 68.7795 172.138ZM57.2139 176.029C57.1524 175.768 57.1193 175.491 57.043 175.293L56.4276 176.301C56.742 176.371 56.9719 176.179 57.2139 176.029ZM62.0619 172.557C61.8718 173.622 63.4827 173.59 63.3262 172.452C62.8635 172.24 62.4492 172.243 62.0619 172.557ZM60.6329 177.039L61.4585 176.631C61.1902 176.498 60.8436 176.753 60.6329 177.039ZM60.1006 173.144C60.6079 172.74 59.9292 172.534 59.7511 172.224C59.5059 171.872 59.1041 172.45 59.1147 172.728C59.0604 173.347 59.7094 173.444 60.1006 173.144ZM61.5766 171.637C61.6774 171.422 61.7715 171.222 61.8622 171.027C61.1964 170.566 61.11 170.583 60.5547 171.252C60.6487 171.482 60.7433 171.712 61.0188 171.825C61.1931 171.769 61.3947 171.701 61.5766 171.637ZM61.5948 173.747C61.3438 173.723 61.1033 173.698 60.871 173.749C60.7419 174.139 60.6425 174.439 60.5431 174.74C61.4993 175.093 61.7148 174.584 61.5948 173.747ZM54.5955 180.022L55.3558 179.646C55.3179 179.612 55.2804 179.578 55.2324 179.545C55.0582 179.695 54.6924 179.821 54.5955 180.022Z" fill="#421B36"/>
<path d="M172.98 172.693L175.183 164.484L178.635 172.381C178.635 172.381 184.699 173.072 184.799 173.628C184.898 174.172 179.174 176.208 179.174 176.208C179.174 176.208 177.164 184.161 176.173 182.44C175.183 180.718 174.101 176.847 174.101 176.847C174.101 176.847 166.449 175.692 166.407 174.921C166.361 174.085 172.98 172.693 172.98 172.693Z" fill="#3B82F6"/>
<path d="M63.8902 141.502C64.5867 139.47 65.637 136.17 65.4661 135.201C65.2141 133.769 52.0194 126.777 51.7597 127.097C51.5514 127.353 47.3821 131.744 45.7448 133.467C43.3491 132.701 42.3411 132.378 39.8706 133.479C34.9352 135.677 8.57072 168.995 9.64496 171.63C13.5003 181.085 45.5518 171.744 45.5518 171.744C45.5518 171.744 65.7478 146.922 65.5899 143.916C65.5496 143.157 64.9184 142.34 63.8902 141.502Z" fill="#2563EB"/>
<path d="M33.4205 139.219L26.3765 147.793C34.1918 153.663 42.1689 159.317 50.2963 164.746L57.3403 156.172C49.2129 150.743 41.2358 145.089 33.4205 139.219Z" fill="#3B82F6"/>
<path d="M42.6378 173.788C42.2355 174.186 33.4626 182.733 27.4976 188.463C26.3855 188.546 25.3338 188.551 24.3579 188.48C9.10307 187.357 6.05891 177.422 9.43571 171.582L9.64787 171.63C9.64787 171.63 9.64787 171.63 9.65363 171.634C9.83747 171.753 13.2407 173.986 18.1544 175.766C24.9469 178.232 34.6122 179.83 42.6378 173.788Z" fill="#3B82F6"/>
<path d="M44.9033 178.457C47.6643 174.923 49.4748 170.733 50.106 166.289C50.1756 165.8 49.4263 165.588 49.3563 166.082C48.7452 170.384 47.0307 174.48 44.3532 177.907C44.0489 178.297 44.5951 178.851 44.9033 178.457Z" fill="#421B36"/>
<path d="M45.5484 133.803C51.1687 137.348 57.3958 139.763 63.6137 142.032C64.0846 142.204 64.2876 141.452 63.8206 141.282C57.6631 139.036 51.5062 136.642 45.941 133.132C45.5167 132.864 45.126 133.537 45.5484 133.803Z" fill="#421B36"/>
<path d="M50.001 135.725C51.236 133.222 52.8652 130.939 54.837 128.962C55.1908 128.607 54.6412 128.057 54.2869 128.411C52.2719 130.432 50.5919 132.773 49.3295 135.333C49.1092 135.78 49.7797 136.174 50.001 135.725Z" fill="#421B36"/>
<path d="M55.362 138.31C56.9931 136.089 58.29 133.646 59.2313 131.057C59.4027 130.587 58.6515 130.383 58.4815 130.851C57.5633 133.375 56.2812 135.753 54.6905 137.917C54.3943 138.321 55.0687 138.709 55.362 138.31Z" fill="#421B36"/>
<path d="M60.5095 140.539C61.9678 138.242 62.9811 135.681 63.4831 133.007C63.5748 132.518 62.8255 132.308 62.7334 132.8C62.2423 135.414 61.2646 137.901 59.8385 140.146C59.5687 140.57 60.2417 140.96 60.5095 140.539Z" fill="#421B36"/>
<path d="M35.0388 181.065C44.6618 173.207 53.0892 163.912 59.9767 153.572C61.9389 150.627 63.7711 147.596 65.4751 144.495C65.716 144.056 65.045 143.663 64.8036 144.102C58.8175 154.999 51.2013 164.976 42.2594 173.615C39.7672 176.024 37.1728 178.324 34.4887 180.515C34.1013 180.832 34.6543 181.379 35.0388 181.065Z" fill="#421B36"/>
</svg>
