<svg width="142" height="120" viewBox="0 0 142 120" fill="none" xmlns="http://www.w3.org/2000/svg">
<path d="M32.0928 81.9013C32.0928 81.9013 22.7613 80.5959 12.4248 83.7565C2.089 86.9178 0 88.2491 0 88.2491L15.0041 94.3172L7.02697 110.205C7.02697 110.205 19.373 103.895 26.4 103.28C33.4277 102.665 41.2147 103.575 41.2147 103.575L32.0928 81.9013Z" fill="#F8A101"/>
<path d="M23.4634 92.1399L30.7229 89.3682L36.4647 101.151L23.4634 92.1399Z" fill="#D78B00"/>
<path d="M109.907 81.9013C109.907 81.9013 119.239 80.5959 129.574 83.7565C139.911 86.9178 142 88.2491 142 88.2491L126.996 94.3172L134.972 110.205C134.972 110.205 122.627 103.895 115.599 103.28C108.572 102.665 100.785 103.575 100.785 103.575L109.907 81.9013Z" fill="#F8A101"/>
<path d="M118.537 92.1399L111.276 89.3682L105.535 101.151L118.537 92.1399Z" fill="#D78B00"/>
<path d="M119.491 66.7348C119.491 93.5479 97.7671 115.284 70.9681 115.284C44.1692 115.284 22.4442 93.5479 22.4442 66.7348C22.4442 39.9216 44.1692 18.1851 70.9681 18.1851C97.7663 18.1851 119.491 39.9216 119.491 66.7348Z" fill="#2563EB"/>
<path d="M119.491 64.8521C119.491 90.6248 97.7671 111.519 70.9681 111.519C44.1692 111.519 22.4442 90.6255 22.4442 64.8521C22.4442 39.0786 44.1692 18.1851 70.9681 18.1851C97.7663 18.1851 119.491 39.0786 119.491 64.8521Z" fill="#2563EB"/>
<path d="M99.5225 27.131C99.8962 29.424 100.096 31.7683 100.096 34.1556C100.096 60.6897 76.1854 82.1999 46.6891 82.1999C38.7097 82.1999 31.1464 80.614 24.3475 77.7926C30.1821 97.2687 48.8383 111.52 70.9674 111.52C97.7663 111.52 119.491 90.6263 119.491 64.8528C119.491 49.3476 111.622 35.6168 99.5225 27.131Z" fill="#3B82F6"/>
<path d="M111.571 64.5399C111.571 86.0872 93.3921 103.554 70.9681 103.554C48.5425 103.554 30.3641 86.0872 30.3641 64.5399C30.3641 42.9926 48.5433 25.5253 70.9681 25.5253C93.3921 25.5253 111.571 42.9926 111.571 64.5399Z" fill="#2563EB"/>
<path d="M109.745 66.6318C109.745 87.2106 92.3833 103.894 70.9673 103.894C49.5506 103.894 32.1894 87.2114 32.1894 66.6318C32.1894 46.0529 49.5506 29.3693 70.9673 29.3693C92.3833 29.3693 109.745 46.0529 109.745 66.6318Z" fill="#3E356E"/>
<path d="M99.492 41.3953C95.6096 64.4936 73.4493 82.1983 46.6897 82.1983C42.7487 82.1983 38.9095 81.8102 35.2144 81.0785C41.0869 94.4821 54.8838 103.893 70.968 103.893C92.384 103.893 109.745 87.2096 109.745 66.63C109.745 56.8938 105.855 48.0333 99.492 41.3953Z" fill="#302954"/>
<path d="M86.311 12.4496C83.2845 13.9761 79.6027 13.1813 77.4736 10.5469L71.0402 2.58282L64.606 10.5469C62.4769 13.1821 58.7952 13.9761 55.7672 12.4496L52.2927 10.7005L53.508 20.1436C55.2739 25.4176 62.4502 29.3678 71.0394 29.3678C79.6287 29.3678 86.805 25.4184 88.5701 20.1436L89.7862 10.7005L86.311 12.4496Z" fill="#3B82F6"/>
<path d="M85.2048 12.8949C82.4286 13.7587 79.3486 12.8689 77.4736 10.5469L71.0402 2.58282L64.606 10.5469C62.4769 13.1821 58.7952 13.9761 55.7672 12.4496L52.2927 10.7005L53.508 20.1436C53.6522 20.5725 53.8438 20.9903 54.057 21.4C57.3213 23.0392 61.2326 23.9958 65.4388 23.9958C74.7457 23.9958 82.6144 19.3228 85.2048 12.8949Z" fill="#2563EB"/>
<path d="M86.7284 14.7524L82.2986 16.2262C80.9413 16.6781 79.4444 16.3612 78.3888 15.3958L71.0386 7.18084L63.6878 15.3958C62.6321 16.3612 61.1359 16.6788 59.7787 16.2262L55.3496 14.7524L55.9929 19.9559H55.9669C57.4847 24.1116 63.6543 27.2246 71.0379 27.2246C78.4215 27.2246 84.5904 24.1116 86.1081 19.9559H86.0829L86.7284 14.7524Z" fill="#2563EB"/>
<path d="M83.5771 15.8017L82.2986 16.2262C80.9413 16.6781 79.4444 16.3612 78.3888 15.3958L71.0386 7.18084L63.6878 15.3958C62.6321 16.3612 61.1359 16.6788 59.7787 16.2262L55.3496 14.7524L55.9929 19.9559H55.9669C56.3636 21.0431 57.0857 22.0545 58.0567 22.9621C60.3485 23.63 62.8364 23.9973 65.438 23.9973C73.271 23.9966 80.0707 20.6802 83.5771 15.8017Z" fill="#3B82F6"/>
<path d="M54.877 10.3024C54.877 11.7287 53.7203 12.8849 52.2932 12.8849C50.8647 12.8849 49.7087 11.7287 49.7087 10.3024C49.7087 8.87757 50.8654 7.72066 52.2932 7.72066C53.7203 7.72066 54.877 8.87757 54.877 10.3024Z" fill="#2563EB"/>
<path d="M49.7087 10.3024C49.7087 10.5777 49.7623 10.8374 49.8425 11.0868C50.2437 11.342 50.7183 11.4957 51.2295 11.4957C52.6573 11.4957 53.814 10.3388 53.814 8.91394C53.814 8.63863 53.7597 8.3789 53.6795 8.12955C53.2783 7.87428 52.8043 7.72066 52.2932 7.72066C50.8654 7.72066 49.7087 8.87757 49.7087 10.3024Z" fill="#3B82F6"/>
<path d="M52.5406 8.79284C52.6817 9.02882 52.4299 9.4392 51.979 9.7071C51.528 9.97647 51.0474 10.0039 50.9062 9.76795C50.7651 9.53048 51.0162 9.12159 51.4679 8.85221C51.9188 8.58209 52.3987 8.55611 52.5406 8.79284Z" fill="#2563EB"/>
<path d="M73.6231 2.58172C73.6231 4.00802 72.4664 5.16419 71.0386 5.16419C69.6108 5.16419 68.4534 4.00727 68.4534 2.58172C68.4534 1.15691 69.6108 0 71.0386 0C72.4672 0 73.6231 1.15691 73.6231 2.58172Z" fill="#2563EB"/>
<path d="M68.4541 2.58098C68.4541 2.8563 68.5083 3.11603 68.5885 3.36537C68.9897 3.62213 69.4644 3.77574 69.9755 3.77574C71.4041 3.77574 72.5607 2.61883 72.5607 1.19328C72.5607 0.917965 72.5065 0.658234 72.4263 0.410376C72.0251 0.153614 71.5497 0 71.0386 0C69.6108 -0.000742088 68.4541 1.15617 68.4541 2.58098Z" fill="#3B82F6"/>
<path d="M71.2868 1.07416C71.4286 1.31014 71.1768 1.72052 70.7251 1.98989C70.2742 2.25927 69.7935 2.28524 69.6524 2.04926C69.512 1.81327 69.7623 1.4029 70.2148 1.13501C70.6657 0.86563 71.1456 0.838172 71.2868 1.07416Z" fill="#2563EB"/>
<path d="M92.3707 10.2611C92.3707 11.6873 91.214 12.8428 89.7855 12.8428C88.3576 12.8428 87.2009 11.6873 87.2009 10.2611C87.2009 8.83476 88.3576 7.67933 89.7855 7.67933C91.214 7.68007 92.3707 8.83476 92.3707 10.2611Z" fill="#2563EB"/>
<path d="M87.2009 10.2611C87.2009 10.5364 87.2559 10.7961 87.3361 11.0454C87.7373 11.3007 88.2112 11.4543 88.7231 11.4543C90.1509 11.4543 91.3076 10.2974 91.3076 8.87261C91.3076 8.59729 91.2533 8.33756 91.1731 8.08822C90.772 7.83294 90.2973 7.67933 89.7855 7.67933C88.3569 7.68007 87.2009 8.83476 87.2009 10.2611Z" fill="#3B82F6"/>
<path d="M90.0335 8.75413C90.1739 8.99011 89.9236 9.40049 89.4711 9.66838C89.0202 9.93776 88.5396 9.96522 88.3992 9.72924C88.258 9.49177 88.5091 9.08288 88.9608 8.8135C89.4117 8.54412 89.8924 8.51815 90.0335 8.75413Z" fill="#2563EB"/>
<path d="M72.6571 35.3449L81.5562 53.3591L101.457 56.2466C103.002 56.4715 103.618 58.3675 102.5 59.4561L88.0996 73.4794L91.5005 93.2768C91.7642 94.8137 90.1499 95.9862 88.7674 95.2604L70.9671 85.9123L53.1675 95.2604C51.7857 95.9869 50.1707 94.8144 50.4344 93.2768L53.8339 73.4794L39.433 59.4561C38.3149 58.3675 38.9315 56.4715 40.4767 56.2466L60.3765 53.3591L69.277 35.3449C69.9694 33.9461 71.9655 33.9461 72.6571 35.3449Z" fill="#3B82F6"/>
<path d="M93.2552 55.0572C87.6761 65.2676 76.015 78.3855 52.386 81.9141L50.4344 93.2768C50.1707 94.8137 51.785 95.9862 53.1675 95.2604L70.9671 85.9123L88.7674 95.2604C90.1492 95.9869 91.7642 94.8137 91.5005 93.2768L88.0996 73.4794L102.5 59.4561C103.618 58.3675 103.002 56.4723 101.457 56.2482L93.2552 55.0572Z" fill="#2563EB"/>
<path d="M69.4798 55.9154C70.5414 57.4241 68.9041 60.4006 65.8218 62.5623C62.7425 64.7262 59.384 65.2568 58.3231 63.7489C57.2615 62.2417 58.8988 59.2645 61.9796 57.1028C65.0611 54.9381 68.4197 54.4075 69.4798 55.9154Z" fill="#2563EB"/>
<path d="M123.497 35.422L122.163 39.6437L117.933 40.9809L122.163 42.3174L123.497 46.5399L124.841 42.3174L129.062 40.9809L124.841 39.6437L123.497 35.422Z" fill="#3B82F6"/>
<path d="M131.573 58.0167C131.573 59.1862 130.625 60.1339 129.454 60.1339C128.284 60.1339 127.334 59.187 127.334 58.0167C127.334 56.8479 128.283 55.8995 129.454 55.8995C130.625 55.8995 131.573 56.8479 131.573 58.0167Z" fill="#3B82F6"/>
<path d="M112.256 11.9565L109.729 19.9525L101.717 22.4845L109.729 25.0173L112.256 33.0155L114.802 25.0173L122.797 22.4845L114.802 19.9525L112.256 11.9565Z" fill="#3B82F6"/>
<path d="M128.662 72.4204C128.662 73.1536 128.068 73.7473 127.335 73.7473C126.601 73.7473 126.007 73.1536 126.007 72.4204C126.007 71.6887 126.601 71.095 127.335 71.095C128.068 71.095 128.662 71.6887 128.662 72.4204Z" fill="#3B82F6"/>
<path d="M18.5021 35.422L19.8371 39.6437L24.0656 40.9809L19.8371 42.3174L18.5021 46.5399L17.1582 42.3174L12.9371 40.9809L17.1582 39.6437L18.5021 35.422Z" fill="#3B82F6"/>
<path d="M10.4262 58.0167C10.4262 59.1862 11.3749 60.1339 12.5464 60.1339C13.7165 60.1339 14.6659 59.187 14.6659 58.0167C14.6659 56.8479 13.7172 55.8995 12.5464 55.8995C11.3749 55.8995 10.4262 56.8479 10.4262 58.0167Z" fill="#3B82F6"/>
<path d="M29.7435 11.9565L32.2708 19.9525L40.2829 22.4845L32.2708 25.0173L29.7435 33.0155L27.1969 25.0173L19.2027 22.4845L27.1969 19.9525L29.7435 11.9565Z" fill="#3B82F6"/>
<path d="M13.3375 72.4204C13.3375 73.1536 13.9318 73.7473 14.6651 73.7473C15.3983 73.7473 15.9926 73.1536 15.9926 72.4204C15.9926 71.6887 15.3983 71.095 14.6651 71.095C13.9318 71.095 13.3375 71.6887 13.3375 72.4204Z" fill="#3B82F6"/>
<path d="M110.143 114.273C114.664 107.58 117.353 100.882 118.864 92.1413C104.027 97.3826 90.0581 99.3662 72.1902 99.3662C53.5303 99.3662 38.4415 97.0212 23.1358 91.3376C24.5235 100.195 27.2269 106.659 32.0051 113.829C32.6165 114.746 33.56 115.394 34.6417 115.61C46.5747 117.992 59.1681 120 72.1902 120C84.3906 120 96.2159 118.151 107.473 116.039C108.564 115.835 109.521 115.193 110.143 114.273Z" fill="#F8A101"/>
<path d="M53.0147 114.158V105.116H54.8249V112.617H56.6866V114.158H53.0147Z" fill="#0F172A"/>
<path d="M57.2009 114.158V105.116H60.8214V106.863H59.042V108.625H60.7495V110.325H59.042V112.396H60.9397V114.158H57.2009Z" fill="#0F172A"/>
<path d="M62.3746 114.158L61.2586 105.111H62.9814L63.6449 111.265L64.2363 105.111H65.9591L64.8431 114.158H62.3746Z" fill="#0F172A"/>
<path d="M66.4888 114.158V105.116H70.1094V106.863H68.33V108.625H70.0374V110.325H68.33V112.396H70.2277V114.158H66.4888Z" fill="#0F172A"/>
<path d="M70.8294 114.158V105.116H72.6396V112.617H74.5013V114.158H70.8294Z" fill="#0F172A"/>
<path d="M79.5773 114.24C78.823 114.24 78.2676 114.029 77.911 113.608C77.5544 113.183 77.3762 112.56 77.3762 111.738V105.116H79.135V111.666C79.135 111.817 79.1436 111.962 79.1607 112.103C79.1779 112.24 79.2173 112.353 79.279 112.442C79.3407 112.531 79.4401 112.576 79.5773 112.576C79.7178 112.576 79.819 112.533 79.8807 112.447C79.9424 112.358 79.9801 112.243 79.9939 112.103C80.011 111.962 80.0196 111.817 80.0196 111.666V105.116H81.7784V111.738C81.7784 112.56 81.6001 113.183 81.2436 113.608C80.887 114.029 80.3316 114.24 79.5773 114.24Z" fill="#0F172A"/>
<path d="M82.4727 114.158V105.116H84.8641C85.3647 105.116 85.7607 105.227 86.0521 105.45C86.3469 105.673 86.5578 105.989 86.6846 106.4C86.8115 106.811 86.8749 107.301 86.8749 107.87C86.8749 108.418 86.8218 108.895 86.7155 109.303C86.6092 109.707 86.4189 110.021 86.1447 110.243C85.8738 110.466 85.4881 110.577 84.9875 110.577H84.2521V114.158H82.4727ZM84.2521 108.954H84.355C84.691 108.954 84.8967 108.86 84.9721 108.671C85.0475 108.483 85.0852 108.205 85.0852 107.839C85.0852 107.496 85.0475 107.233 84.9721 107.048C84.9001 106.859 84.727 106.765 84.4527 106.765H84.2521V108.954Z" fill="#0F172A"/>
</svg>
